<?xml version="1.0" encoding="UTF-8"?>
<svg xmlns="http://www.w3.org/2000/svg" xmlns:xlink="http://www.w3.org/1999/xlink" viewBox="0 0 458.85 280.19">
  <defs>
    <style>
      .cls-1 {
        fill: url(#linear-gradient-5);
      }

      .cls-1, .cls-2, .cls-3, .cls-4, .cls-5, .cls-6, .cls-7, .cls-8, .cls-9, .cls-10, .cls-11, .cls-12, .cls-13 {
        stroke-width: 0px;
      }

      .cls-1, .cls-2, .cls-4 {
        mix-blend-mode: multiply;
      }

      .cls-2 {
        fill: url(#linear-gradient-3);
      }

      .cls-14 {
        filter: url(#luminosity-noclip-3);
      }

      .cls-15 {
        filter: url(#luminosity-noclip-5);
      }

      .cls-16 {
        mask: url(#mask);
      }

      .cls-17 {
        filter: url(#luminosity-noclip);
      }

      .cls-3 {
        fill: #00dac8;
        opacity: .2;
      }

      .cls-4 {
        fill: url(#linear-gradient);
      }

      .cls-5 {
        fill: url(#linear-gradient-6);
      }

      .cls-5, .cls-6, .cls-7 {
        opacity: .3;
      }

      .cls-6 {
        fill: url(#linear-gradient-4);
      }

      .cls-7 {
        fill: url(#linear-gradient-2);
      }

      .cls-18, .cls-8 {
        mix-blend-mode: overlay;
      }

      .cls-8, .cls-12 {
        fill: #fff;
      }

      .cls-19 {
        opacity: .5;
      }

      .cls-20 {
        isolation: isolate;
      }

      .cls-21 {
        mask: url(#mask-3);
      }

      .cls-22 {
        mask: url(#mask-2);
      }

      .cls-23 {
        mask: url(#mask-5);
      }

      .cls-24 {
        mask: url(#mask-4);
      }

      .cls-25 {
        mask: url(#mask-1);
      }

      .cls-9 {
        fill: #f2f2f2;
      }

      .cls-10 {
        fill: #ccc;
      }

      .cls-11 {
        fill: #b3b3b3;
      }

      .cls-13 {
        fill: #0071bc;
      }

      .meter1,
      .meter2,
      .meter3{
        fill:none;
        stroke:#ffffff;
        stroke-width:1.5;
        stroke-dasharray:54;
      }
      
      .meter1{
        animation: meterA 4s ease-in-out infinite;
      }
      
      .meter2{
        animation: meterB 5s ease-in-out infinite;
      }
      
      .meter3{
        animation: meterC 6s ease-in-out infinite;
      }
      
      @keyframes meterA{
        0%{stroke-dashoffset:54;}
        50%{stroke-dashoffset:10;}
        100%{stroke-dashoffset:54;}
      }
      
      @keyframes meterB{
        0%{stroke-dashoffset:54;}
        50%{stroke-dashoffset:25;}
        100%{stroke-dashoffset:54;}
      }
      
      @keyframes meterC{
        0%{stroke-dashoffset:54;}
        50%{stroke-dashoffset:5;}
        100%{stroke-dashoffset:54;}
      }

    </style>
    <filter id="luminosity-noclip" x="37.02" y="241.74" width="33.05" height="6.55" color-interpolation-filters="sRGB" filterUnits="userSpaceOnUse">
      <feFlood flood-color="#fff" result="bg"/>
      <feBlend in="SourceGraphic" in2="bg"/>
    </filter>
    <filter id="luminosity-noclip-2" x="37.02" y="-8325.08" width="33.05" height="32766" color-interpolation-filters="sRGB" filterUnits="userSpaceOnUse">
      <feFlood flood-color="#fff" result="bg"/>
      <feBlend in="SourceGraphic" in2="bg"/>
    </filter>
    <mask id="mask-1" x="37.02" y="-8325.08" width="33.05" height="32766" maskUnits="userSpaceOnUse"/>
    <linearGradient id="linear-gradient" x1="53.62" y1="233.9" x2="53.52" y2="248.98" gradientUnits="userSpaceOnUse">
      <stop offset=".07" stop-color="#fff"/>
      <stop offset=".84" stop-color="#000"/>
    </linearGradient>
    <mask id="mask" x="37.02" y="241.74" width="33.05" height="6.55" maskUnits="userSpaceOnUse">
      <g class="cls-17">
        <g class="cls-25">
          <path class="cls-4" d="m47.63,243.28v-1.54h.42v1.66c-.13-.07-.27-.11-.42-.12Zm-1.22,1.03v-2.57h-.42v2.67s.09.02.14.02c.11,0,.2-.05.28-.13Zm.82-.96v-1.61h-.42v2.01c.06-.09.13-.18.2-.25.07-.06.14-.11.22-.15Zm2.45,2.43v-4.03h-.42v3.29c.14.25.27.5.42.74Zm.82,1.35v-5.38h-.42v4.71c.13.22.27.44.41.66,0,0,0,0,0,.01Zm2.45.45v-5.83h-.42v6.28c.1-.09.2-.2.29-.3.04-.05.08-.1.12-.14Zm-7.34-3.58v-2.25h-.42v1.55c.16.19.28.46.42.7Zm6.53,4.27v-6.52h-.42v6.53c.14.03.27.04.42,0Zm-.82-.19v-6.33h-.42v5.93c.13.15.27.29.42.4Zm-2.45-3.76v-2.57h-.42v1.99c.16.17.29.37.42.58Zm-4.08-1.24v-1.33h-.42v1.49c.13-.11.27-.17.42-.16Zm-5.71,1.39v-2.72h-.42v1.66s.04.07.06.11c.16.29.26.62.35.95Zm-.82-1.52v-1.2h-.42v.99c.15.03.29.11.42.21Zm-.82-.2v-1h-.42v1.22c.13-.1.27-.18.42-.22Zm3.26,5.36v-6.36h-.42v5.85c.12.2.25.39.42.51Zm-.82-1.27v-5.09h-.42v4.08c.12.35.26.68.42,1.01Zm4.08-3.08v-2.01h-.42v2.97c.05-.12.1-.24.14-.37.07-.19.17-.4.27-.59Zm-2.45,4.4v-6.41h-.42v6.52c.14,0,.28-.03.42-.11Zm1.63-2.51v-3.9h-.42v4.75c.15-.28.28-.57.42-.85Zm-.82,1.59v-5.48h-.42v6.07c.16-.17.3-.38.42-.59Zm11.42-.69v-4.79h-.42v5.34c.14-.18.28-.37.42-.56Zm.82-1.26v-3.53h-.42v4.2c.14-.22.28-.44.42-.67Zm11.42-1.58v-1.96h-.42v2.32c.13-.14.27-.27.42-.36Zm-.82.94v-2.89h-.42v3.84c.12-.31.24-.61.39-.9,0-.02.02-.03.03-.05Zm-2.45,2.81v-5.7h-.42v5.43c.13.11.27.2.42.27Zm1.63-.91v-4.79h-.42v5.43c.11-.13.21-.27.3-.43.04-.07.08-.14.12-.22Zm-.82.95v-5.73h-.42v5.81c.14,0,.28-.01.42-.07Zm5.71-.95v-4.78h-.42v4.28c.13.18.27.34.42.5Zm.82.76v-5.55h-.42v5.19c.13.13.27.24.42.36Zm-1.63-1.86v-3.69h-.42v2.98c.13.21.25.44.38.64.01.02.03.04.04.06Zm-.82-1.29v-2.39h-.42v1.99c.15.11.29.25.42.41Zm-.82-.6v-1.8h-.42v1.79c.1-.02.2-.03.3-.01.04,0,.08.01.12.02Zm-10.61.62v-2.42h-.42v2.32c.15-.02.29.01.42.09Zm.82,1.18v-3.59h-.42v2.97c.12.25.23.5.42.63Zm4.9,1.41v-5h-.42v4.27c.08.16.16.32.25.48.05.09.11.17.17.26Zm-6.53-2.53v-2.47h-.42v2.89c.09-.13.19-.24.31-.34.03-.03.07-.05.11-.08Zm2.45.87v-3.35h-.42v3.66c.15-.05.3-.16.42-.31Zm3.26,0v-3.35h-.42v2.54c.16.25.29.53.42.81Zm-2.45-1.48v-1.87h-.42v2.57c.11-.25.22-.5.39-.68,0,0,.02-.01.02-.02Zm1.63.18v-2.05h-.42v1.76c.15.07.29.17.42.29Zm-.82-.43v-1.62h-.42v1.64c.13-.04.27-.04.42-.01Z"/>
        </g>
      </g>
    </mask>
    <linearGradient id="linear-gradient-2" x1="53.62" y1="233.9" x2="53.52" y2="248.98" gradientUnits="userSpaceOnUse">
      <stop offset=".07" stop-color="#fff"/>
      <stop offset=".84" stop-color="#fff"/>
    </linearGradient>
    <filter id="luminosity-noclip-3" x="103.97" y="241.74" width="33.05" height="6.55" color-interpolation-filters="sRGB" filterUnits="userSpaceOnUse">
      <feFlood flood-color="#fff" result="bg"/>
      <feBlend in="SourceGraphic" in2="bg"/>
    </filter>
    <filter id="luminosity-noclip-4" x="103.97" y="-8325.08" width="33.05" height="32766" color-interpolation-filters="sRGB" filterUnits="userSpaceOnUse">
      <feFlood flood-color="#fff" result="bg"/>
      <feBlend in="SourceGraphic" in2="bg"/>
    </filter>
    <mask id="mask-3" x="103.97" y="-8325.08" width="33.05" height="32766" maskUnits="userSpaceOnUse"/>
    <linearGradient id="linear-gradient-3" x1="120.57" y1="233.9" x2="120.46" y2="248.98" xlink:href="#linear-gradient"/>
    <mask id="mask-2" x="103.97" y="241.74" width="33.05" height="6.55" maskUnits="userSpaceOnUse">
      <g class="cls-14">
        <g class="cls-21">
          <path class="cls-2" d="m114.57,243.28v-1.54h.42v1.66c-.13-.07-.27-.11-.42-.12Zm-1.22,1.03v-2.57h-.42v2.67s.09.02.14.02c.11,0,.2-.05.28-.13Zm.82-.96v-1.61h-.42v2.01c.06-.09.13-.18.2-.25.07-.06.14-.11.22-.15Zm2.45,2.43v-4.03h-.42v3.29c.14.25.27.5.42.74Zm.82,1.35v-5.38h-.42v4.71c.13.22.27.44.41.66,0,0,0,0,0,.01Zm2.45.45v-5.83h-.42v6.28c.1-.09.2-.2.29-.3.04-.05.08-.1.12-.14Zm-7.34-3.58v-2.25h-.42v1.55c.16.19.28.46.42.7Zm6.53,4.27v-6.52h-.42v6.53c.14.03.27.04.42,0Zm-.82-.19v-6.33h-.42v5.93c.13.15.27.29.42.4Zm-2.45-3.76v-2.57h-.42v1.99c.16.17.29.37.42.58Zm-4.08-1.24v-1.33h-.42v1.49c.13-.11.27-.17.42-.16Zm-5.71,1.39v-2.72h-.42v1.66s.04.07.06.11c.16.29.26.62.35.95Zm-.82-1.52v-1.2h-.42v.99c.15.03.29.11.42.21Zm-.82-.2v-1h-.42v1.22c.13-.1.27-.18.42-.22Zm3.26,5.36v-6.36h-.42v5.85c.12.2.25.39.42.51Zm-.82-1.27v-5.09h-.42v4.08c.12.35.26.68.42,1.01Zm4.08-3.08v-2.01h-.42v2.97c.05-.12.1-.24.14-.37.07-.19.17-.4.27-.59Zm-2.45,4.4v-6.41h-.42v6.52c.14,0,.28-.03.42-.11Zm1.63-2.51v-3.9h-.42v4.75c.15-.28.28-.57.42-.85Zm-.82,1.59v-5.48h-.42v6.07c.16-.17.3-.38.42-.59Zm11.42-.69v-4.79h-.42v5.34c.14-.18.28-.37.42-.56Zm.82-1.26v-3.53h-.42v4.2c.14-.22.28-.44.42-.67Zm11.42-1.58v-1.96h-.42v2.32c.13-.14.27-.27.42-.36Zm-.82.94v-2.89h-.42v3.84c.12-.31.24-.61.39-.9,0-.02.02-.03.03-.05Zm-2.45,2.81v-5.7h-.42v5.43c.13.11.27.2.42.27Zm1.63-.91v-4.79h-.42v5.43c.11-.13.21-.27.3-.43.04-.07.08-.14.12-.22Zm-.82.95v-5.73h-.42v5.81c.14,0,.28-.01.42-.07Zm5.71-.95v-4.78h-.42v4.28c.13.18.27.34.42.5Zm.82.76v-5.55h-.42v5.19c.13.13.27.24.42.36Zm-1.63-1.86v-3.69h-.42v2.98c.13.21.25.44.38.64.01.02.03.04.04.06Zm-.82-1.29v-2.39h-.42v1.99c.15.11.29.25.42.41Zm-.82-.6v-1.8h-.42v1.79c.1-.02.2-.03.3-.01.04,0,.08.01.12.02Zm-10.61.62v-2.42h-.42v2.32c.15-.02.29.01.42.09Zm.82,1.18v-3.59h-.42v2.97c.12.25.23.5.42.63Zm4.9,1.41v-5h-.42v4.27c.08.16.16.32.25.48.05.09.11.17.17.26Zm-6.53-2.53v-2.47h-.42v2.89c.09-.13.19-.24.31-.34.03-.03.07-.05.11-.08Zm2.45.87v-3.35h-.42v3.66c.15-.05.3-.16.42-.31Zm3.26,0v-3.35h-.42v2.54c.16.25.29.53.42.81Zm-2.45-1.48v-1.87h-.42v2.57c.11-.25.22-.5.39-.68,0,0,.02-.01.02-.02Zm1.63.18v-2.05h-.42v1.76c.15.07.29.17.42.29Zm-.82-.43v-1.62h-.42v1.64c.13-.04.27-.04.42-.01Z"/>
        </g>
      </g>
    </mask>
    <linearGradient id="linear-gradient-4" x1="120.57" y1="233.9" x2="120.46" y2="248.98" xlink:href="#linear-gradient-2"/>
    <filter id="luminosity-noclip-5" x="70.5" y="241.74" width="33.05" height="6.55" color-interpolation-filters="sRGB" filterUnits="userSpaceOnUse">
      <feFlood flood-color="#fff" result="bg"/>
      <feBlend in="SourceGraphic" in2="bg"/>
    </filter>
    <filter id="luminosity-noclip-6" x="70.5" y="-8325.08" width="33.05" height="32766" color-interpolation-filters="sRGB" filterUnits="userSpaceOnUse">
      <feFlood flood-color="#fff" result="bg"/>
      <feBlend in="SourceGraphic" in2="bg"/>
    </filter>
    <mask id="mask-5" x="70.5" y="-8325.08" width="33.05" height="32766" maskUnits="userSpaceOnUse"/>
    <linearGradient id="linear-gradient-5" x1="-3014.85" y1="233.9" x2="-3014.96" y2="248.98" gradientTransform="translate(-2927.9) rotate(-180) scale(1 -1)" xlink:href="#linear-gradient"/>
    <mask id="mask-4" x="70.5" y="241.74" width="33.05" height="6.55" maskUnits="userSpaceOnUse">
      <g class="cls-15">
        <g class="cls-23">
          <path class="cls-1" d="m92.53,243.4v-1.66h.42v1.54c-.14.01-.28.06-.42.12Zm1.91,1.03s.1,0,.14-.02v-2.67h-.42v2.57c.08.07.17.12.28.13Zm-.88-.94c.07.07.14.16.2.25v-2.01h-.42v1.61c.08.04.15.08.22.15Zm-2.25,1.54v-3.29h-.42v4.03c.14-.24.28-.49.42-.74Zm-1.22,2.08c.14-.22.27-.44.41-.66v-4.71h-.42v5.38s0,0,0-.01Zm-2.33.61c.09.11.19.21.29.3v-6.28h-.42v5.83s.08.1.12.14Zm7.64-4.42v-1.55h-.42v2.25c.13-.23.25-.51.42-.7Zm-6.53,4.98v-6.53h-.42v6.52c.14.04.28.04.42,0Zm.82-.6v-5.93h-.42v6.33c.15-.11.29-.25.42-.4Zm2.45-3.95v-1.99h-.42v2.57c.12-.21.26-.41.42-.58Zm4.08-.49v-1.49h-.42v1.33c.15-.01.29.05.42.16Zm5.65.28s.04-.07.06-.11v-1.66h-.42v2.72c.09-.33.2-.66.35-.95Zm.88-.78v-.99h-.42v1.2c.13-.1.27-.18.42-.21Zm.82.24v-1.22h-.42v1c.14.04.28.12.42.22Zm-3.26,4.62v-5.85h-.42v6.36c.16-.13.3-.32.42-.51Zm.82-1.76v-4.08h-.42v5.09c.15-.32.29-.66.42-1.01Zm-4.22-1.48c.05.12.09.25.14.37v-2.97h-.42v2.01c.11.19.2.4.27.59Zm2.59,3.92v-6.52h-.42v6.41c.13.08.27.12.42.11Zm-1.63-1.77v-4.75h-.42v3.9c.13.29.27.57.42.85Zm.82,1.32v-6.07h-.42v5.48c.12.21.26.41.42.59Zm-11.42-.73v-5.34h-.42v4.79c.14.19.27.37.42.56Zm-.82-1.14v-4.2h-.42v3.53c.13.23.27.45.42.67Zm-11.42-1.89v-2.32h-.42v1.96c.15.09.29.22.42.36Zm.43.63c.15.29.27.59.39.9v-3.84h-.42v2.89s.02.03.03.05Zm2.84,2.49v-5.43h-.42v5.7c.14-.07.28-.16.42-.27Zm-1.93-.43c.09.16.19.3.3.43v-5.43h-.42v4.79c.04.07.07.15.12.22Zm1.12.8v-5.81h-.42v5.73c.14.06.28.08.42.07Zm-5.71-1.53v-4.28h-.42v4.78c.14-.16.28-.33.42-.5Zm-.82.91v-5.19h-.42v5.55c.14-.11.28-.23.42-.36Zm1.25-1.56c.12-.21.25-.43.38-.64v-2.98h-.42v3.69s.03-.04.04-.06Zm1.19-1.64v-1.99h-.42v2.39c.13-.16.27-.3.42-.41Zm.52-.21c.1-.01.2,0,.3.01v-1.79h-.42v1.8s.08-.02.12-.02Zm10.9.55v-2.32h-.42v2.42c.13-.08.27-.11.42-.09Zm-.82.64v-2.97h-.42v3.59c.19-.13.3-.38.42-.63Zm-5.14,1.78c.09-.15.17-.31.25-.48v-4.27h-.42v5c.06-.08.12-.17.17-.26Zm6.47-2.19c.12.1.22.21.31.34v-2.89h-.42v2.47s.07.05.11.08Zm-2.14,1.11v-3.66h-.42v3.35c.12.15.26.27.42.31Zm-3.26-1.12v-2.54h-.42v3.35c.12-.28.26-.56.42-.81Zm2.05-.65c.17.18.29.43.39.68v-2.57h-.42v1.87s.02.01.02.02Zm-1.24-.13v-1.76h-.42v2.05c.13-.12.27-.22.42-.29Zm.82-.12v-1.64h-.42v1.62c.14-.02.28-.02.42.01Z"/>
        </g>
      </g>
    </mask>
    <linearGradient id="linear-gradient-6" x1="-3014.85" y1="233.9" x2="-3014.96" y2="248.98" gradientTransform="translate(-2927.9) rotate(-180) scale(1 -1)" xlink:href="#linear-gradient-2"/>
  </defs>
  <g class="cls-20">
    <g id="_レイヤー_2" data-name="レイヤー 2">
      <g id="Layer_2" data-name="Layer 2">
        <path class="cls-13" d="m174.42,4.27H11.97c-4.25,0-7.7,3.46-7.7,7.7v80.12h.41v-59.88l3.05-3.05v-15.93c0-3.03,2.48-5.51,5.51-5.51h15.93l3.05-3.05h142.21v-.41Z"/>
        <path class="cls-11" d="m66.4.81v-.81H10.17C4.56,0,0,4.56,0,10.17v58.32h.81V10.17C.81,5.01,5.01.81,10.17.81h56.24Z"/>
        <path class="cls-13" d="m284.24,4.27h162.63c4.25,0,7.7,3.46,7.7,7.7v80.12h-.41v-59.88l-3.05-3.05v-15.93c0-3.03-2.48-5.51-5.51-5.51h-15.93l-3.05-3.05h-142.4v-.41Z"/>
        <path class="cls-11" d="m392.45.81v-.81h56.24c5.61,0,10.17,4.56,10.17,10.17v58.32h-.81V10.17c0-5.16-4.2-9.35-9.35-9.35h-56.24Z"/>
        <path class="cls-13" d="m138.29,263.39l-.41.41H11.97c-4.25,0-7.7-3.45-7.7-7.7v-80.11h.41v59.87l3.04,3.05v15.92c0,3.03,2.48,5.51,5.5,5.51h15.93l3.05,3.04h106.07Z"/>
        <path class="cls-11" d="m66.4,267.26v.81H10.17c-5.61,0-10.17-4.56-10.17-10.17v-58.32h.81v58.32c0,5.16,4.2,9.35,9.35,9.35h56.24Z"/>
        <path class="cls-13" d="m454.58,175.98v80.11c0,4.25-3.45,7.7-7.7,7.7h-125.91l-.41-.41h106.07l3.05-3.04h15.93c3.03,0,5.5-2.48,5.5-5.51v-15.92l3.04-3.05v-59.87h.41Z"/>
        <path class="cls-11" d="m392.45,267.26v.81h56.24c5.61,0,10.17-4.56,10.17-10.17v-58.32h-.81v58.32c0,5.16-4.2,9.35-9.35,9.35h-56.24Z"/>
        <polygon class="cls-10" points="39.57 280.19 54.98 280.19 56.7 278.47 128.19 278.47 129.21 279.5 144.12 279.5 151.49 272.12 169.27 272.12 172.43 268.96 172.43 265.73 189.87 248.29 229.43 248.29 268.98 248.29 286.42 265.73 286.42 268.96 289.58 272.12 307.36 272.12 314.74 279.5 329.64 279.5 330.66 278.47 402.15 278.47 403.87 280.19 419.28 280.19 425.65 273.82 425.65 272.04 418.9 272.04 418.9 273.82 415.13 277.59 340.1 277.59 338.84 276.33 318.77 276.33 308.76 266.32 304.07 266.32 302.49 267.91 289.84 267.91 269.34 247.41 229.43 247.41 189.51 247.41 169.01 267.91 156.36 267.91 154.78 266.32 150.09 266.32 140.08 276.33 120.02 276.33 118.75 277.59 43.72 277.59 39.95 273.82 39.95 272.04 33.2 272.04 33.2 273.82 39.57 280.19"/>
        <g class="cls-18">
          <g>
            <path class="cls-9" d="m116.72,24.86v.41h-1.58v-.41h1.58Z"/>
            <path class="cls-9" d="m118.42,23.16h-.01l-.72.39-.11-.43.91-.48h.48v4.15h-.54v-3.63Z"/>
            <path class="cls-9" d="m123.23,24.67c0,1.41-.53,2.19-1.44,2.19-.81,0-1.36-.76-1.37-2.13,0-1.39.6-2.16,1.44-2.16s1.37.78,1.37,2.1Zm-2.25.06c0,1.08.33,1.69.84,1.69.57,0,.85-.67.85-1.73s-.26-1.69-.84-1.69c-.49,0-.85.6-.85,1.72Z"/>
          </g>
          <path class="cls-9" d="m230.44,24.67c0,1.41-.53,2.19-1.44,2.19-.81,0-1.36-.76-1.37-2.13,0-1.39.6-2.16,1.44-2.16s1.37.78,1.37,2.1Zm-2.25.06c0,1.08.33,1.69.84,1.69.57,0,.85-.67.85-1.73s-.26-1.69-.84-1.69c-.49,0-.85.6-.85,1.72Z"/>
          <g>
            <path class="cls-9" d="m335.69,23.4v1.5h1.44v.38h-1.44v1.51h-.41v-1.51h-1.44v-.38h1.44v-1.5h.41Z"/>
            <path class="cls-9" d="m338.89,23.16h-.01l-.72.39-.11-.43.91-.48h.48v4.15h-.54v-3.63Z"/>
            <path class="cls-9" d="m343.71,24.67c0,1.41-.53,2.19-1.44,2.19-.81,0-1.36-.76-1.37-2.13,0-1.39.6-2.16,1.44-2.16s1.37.78,1.37,2.1Zm-2.25.06c0,1.08.33,1.69.84,1.69.57,0,.85-.67.85-1.73s-.26-1.69-.84-1.69c-.49,0-.85.6-.85,1.72Z"/>
          </g>
          <g>
            <rect class="cls-9" x="120.93" y="15.34" width=".76" height="3.52"/>
            <rect class="cls-9" x="123.33" y="15.34" width=".76" height="3.52"/>
            <rect class="cls-9" x="125.72" y="15.34" width=".76" height="3.52"/>
            <rect class="cls-9" x="128.12" y="15.34" width=".76" height="3.52"/>
            <rect class="cls-9" x="130.51" y="15.34" width=".76" height="3.52"/>
            <rect class="cls-9" x="132.9" y="15.34" width=".76" height="3.52"/>
            <rect class="cls-9" x="135.3" y="15.34" width=".76" height="3.52"/>
            <rect class="cls-9" x="137.69" y="15.34" width=".76" height="3.52"/>
            <rect class="cls-9" x="140.09" y="15.34" width=".76" height="3.52"/>
            <rect class="cls-9" x="142.48" y="15.34" width=".76" height="3.52"/>
            <rect class="cls-9" x="144.87" y="15.34" width=".76" height="3.52"/>
            <rect class="cls-9" x="147.27" y="15.34" width=".76" height="3.52"/>
            <rect class="cls-9" x="149.66" y="15.34" width=".76" height="3.52"/>
            <rect class="cls-9" x="152.05" y="15.34" width=".76" height="3.52"/>
            <rect class="cls-9" x="154.45" y="15.34" width=".76" height="3.52"/>
            <rect class="cls-9" x="156.84" y="15.34" width=".76" height="3.52"/>
            <rect class="cls-9" x="159.24" y="15.34" width=".76" height="3.52"/>
            <rect class="cls-9" x="161.63" y="15.34" width=".76" height="3.52"/>
            <rect class="cls-9" x="164.02" y="15.34" width=".76" height="3.52"/>
            <rect class="cls-9" x="166.42" y="15.34" width=".76" height="3.52"/>
            <rect class="cls-9" x="168.81" y="15.34" width=".76" height="3.52"/>
            <rect class="cls-9" x="171.21" y="15.34" width=".76" height="3.52"/>
            <rect class="cls-9" x="173.6" y="15.34" width=".76" height="3.52"/>
            <rect class="cls-9" x="175.99" y="15.34" width=".76" height="3.52"/>
            <rect class="cls-9" x="178.39" y="15.34" width=".76" height="3.52"/>
            <rect class="cls-9" x="180.78" y="15.34" width=".76" height="3.52"/>
            <rect class="cls-9" x="183.17" y="15.34" width=".76" height="3.52"/>
            <rect class="cls-9" x="185.57" y="15.34" width=".76" height="3.52"/>
            <rect class="cls-9" x="187.96" y="15.34" width=".76" height="3.52"/>
            <rect class="cls-9" x="190.36" y="15.34" width=".76" height="3.52"/>
            <rect class="cls-9" x="192.75" y="15.34" width=".76" height="3.52"/>
            <rect class="cls-9" x="195.14" y="15.34" width=".76" height="3.52"/>
            <rect class="cls-9" x="197.54" y="15.34" width=".76" height="3.52"/>
            <rect class="cls-9" x="199.93" y="15.34" width=".76" height="3.52"/>
            <rect class="cls-9" x="202.32" y="15.34" width=".76" height="3.52"/>
            <rect class="cls-9" x="204.72" y="15.34" width=".76" height="3.52"/>
            <rect class="cls-9" x="207.11" y="15.34" width=".76" height="3.52"/>
            <rect class="cls-9" x="209.51" y="15.34" width=".76" height="3.52"/>
            <rect class="cls-9" x="211.9" y="15.34" width=".76" height="3.52"/>
            <rect class="cls-9" x="214.29" y="15.34" width=".76" height="3.52"/>
            <rect class="cls-9" x="216.69" y="15.34" width=".76" height="3.52"/>
            <rect class="cls-9" x="219.08" y="15.34" width=".76" height="3.52"/>
            <rect class="cls-9" x="221.48" y="15.34" width=".76" height="3.52"/>
            <rect class="cls-9" x="223.87" y="15.34" width=".76" height="3.52"/>
            <rect class="cls-9" x="226.26" y="15.34" width=".76" height="3.52"/>
            <rect class="cls-9" x="231.05" y="15.34" width=".76" height="3.52"/>
            <rect class="cls-9" x="233.44" y="15.34" width=".76" height="3.52"/>
            <rect class="cls-9" x="235.84" y="15.34" width=".76" height="3.52"/>
            <rect class="cls-9" x="238.23" y="15.34" width=".76" height="3.52"/>
            <rect class="cls-9" x="240.63" y="15.34" width=".76" height="3.52"/>
            <rect class="cls-9" x="243.02" y="15.34" width=".76" height="3.52"/>
            <rect class="cls-9" x="245.41" y="15.34" width=".76" height="3.52"/>
            <rect class="cls-9" x="247.81" y="15.34" width=".76" height="3.52"/>
            <rect class="cls-9" x="250.2" y="15.34" width=".76" height="3.52"/>
            <rect class="cls-9" x="252.59" y="15.34" width=".76" height="3.52"/>
            <rect class="cls-9" x="254.99" y="15.34" width=".76" height="3.52"/>
            <rect class="cls-9" x="257.38" y="15.34" width=".76" height="3.52"/>
            <rect class="cls-9" x="259.78" y="15.34" width=".76" height="3.52"/>
            <rect class="cls-9" x="262.17" y="15.34" width=".76" height="3.52"/>
            <rect class="cls-9" x="264.56" y="15.34" width=".76" height="3.52"/>
            <rect class="cls-9" x="266.96" y="15.34" width=".76" height="3.52"/>
            <rect class="cls-9" x="269.35" y="15.34" width=".76" height="3.52"/>
            <rect class="cls-9" x="271.75" y="15.34" width=".76" height="3.52"/>
            <rect class="cls-9" x="274.14" y="15.34" width=".76" height="3.52"/>
            <rect class="cls-9" x="276.53" y="15.34" width=".76" height="3.52"/>
            <rect class="cls-9" x="278.93" y="15.34" width=".76" height="3.52"/>
            <rect class="cls-9" x="281.32" y="15.34" width=".76" height="3.52"/>
            <rect class="cls-9" x="283.71" y="15.34" width=".76" height="3.52"/>
            <rect class="cls-9" x="286.11" y="15.34" width=".76" height="3.52"/>
            <rect class="cls-9" x="288.5" y="15.34" width=".76" height="3.52"/>
            <rect class="cls-9" x="290.9" y="15.34" width=".76" height="3.52"/>
            <rect class="cls-9" x="293.29" y="15.34" width=".76" height="3.52"/>
            <rect class="cls-9" x="295.68" y="15.34" width=".76" height="3.52"/>
            <rect class="cls-9" x="298.08" y="15.34" width=".76" height="3.52"/>
            <rect class="cls-9" x="300.47" y="15.34" width=".76" height="3.52"/>
            <rect class="cls-9" x="302.86" y="15.34" width=".76" height="3.52"/>
            <rect class="cls-9" x="305.26" y="15.34" width=".76" height="3.52"/>
            <rect class="cls-9" x="307.65" y="15.34" width=".76" height="3.52"/>
            <rect class="cls-9" x="310.05" y="15.34" width=".76" height="3.52"/>
            <rect class="cls-9" x="312.44" y="15.34" width=".76" height="3.52"/>
            <rect class="cls-9" x="314.83" y="15.34" width=".76" height="3.52"/>
            <rect class="cls-9" x="317.23" y="15.34" width=".76" height="3.52"/>
            <rect class="cls-9" x="319.62" y="15.34" width=".76" height="3.52"/>
            <rect class="cls-9" x="322.02" y="15.34" width=".76" height="3.52"/>
            <rect class="cls-9" x="324.41" y="15.34" width=".76" height="3.52"/>
            <rect class="cls-9" x="326.8" y="15.34" width=".76" height="3.52"/>
            <rect class="cls-9" x="329.2" y="15.34" width=".76" height="3.52"/>
            <rect class="cls-9" x="331.59" y="15.34" width=".76" height="3.52"/>
            <rect class="cls-9" x="333.98" y="15.34" width=".76" height="3.52"/>
            <rect class="cls-9" x="336.38" y="15.34" width=".76" height="3.52"/>
          </g>
          <g>
            <g>
              <polygon class="cls-9" points="229.04 21.27 229.82 19.92 228.26 19.92 229.04 21.27"/>
              <polygon class="cls-9" points="229.04 12.93 228.26 14.28 229.82 14.28 229.04 12.93"/>
            </g>
            <g>
              <polygon class="cls-9" points="118.92 21.27 119.7 19.92 118.14 19.92 118.92 21.27"/>
              <polygon class="cls-9" points="118.92 12.93 118.14 14.28 119.7 14.28 118.92 12.93"/>
            </g>
            <g>
              <polygon class="cls-9" points="339.15 21.27 339.93 19.92 338.37 19.92 339.15 21.27"/>
              <polygon class="cls-9" points="339.15 12.93 338.37 14.28 339.93 14.28 339.15 12.93"/>
            </g>
          </g>
          <g>
            <g>
              <polygon class="cls-9" points="229.04 21.27 229.82 19.92 228.26 19.92 229.04 21.27"/>
              <polygon class="cls-9" points="229.04 12.93 228.26 14.28 229.82 14.28 229.04 12.93"/>
            </g>
            <g>
              <polygon class="cls-9" points="118.92 21.27 119.7 19.92 118.14 19.92 118.92 21.27"/>
              <polygon class="cls-9" points="118.92 12.93 118.14 14.28 119.7 14.28 118.92 12.93"/>
            </g>
            <g>
              <polygon class="cls-9" points="339.15 21.27 339.93 19.92 338.37 19.92 339.15 21.27"/>
              <polygon class="cls-9" points="339.15 12.93 338.37 14.28 339.93 14.28 339.15 12.93"/>
            </g>
          </g>
          <g>
            <path class="cls-9" d="m116.72,24.86v.41h-1.58v-.41h1.58Z"/>
            <path class="cls-9" d="m118.42,23.16h-.01l-.72.39-.11-.43.91-.48h.48v4.15h-.54v-3.63Z"/>
            <path class="cls-9" d="m123.23,24.67c0,1.41-.53,2.19-1.44,2.19-.81,0-1.36-.76-1.37-2.13,0-1.39.6-2.16,1.44-2.16s1.37.78,1.37,2.1Zm-2.25.06c0,1.08.33,1.69.84,1.69.57,0,.85-.67.85-1.73s-.26-1.69-.84-1.69c-.49,0-.85.6-.85,1.72Z"/>
          </g>
          <path class="cls-9" d="m230.44,24.67c0,1.41-.53,2.19-1.44,2.19-.81,0-1.36-.76-1.37-2.13,0-1.39.6-2.16,1.44-2.16s1.37.78,1.37,2.1Zm-2.25.06c0,1.08.33,1.69.84,1.69.57,0,.85-.67.85-1.73s-.26-1.69-.84-1.69c-.49,0-.85.6-.85,1.72Z"/>
          <g>
            <path class="cls-9" d="m335.69,23.4v1.5h1.44v.38h-1.44v1.51h-.41v-1.51h-1.44v-.38h1.44v-1.5h.41Z"/>
            <path class="cls-9" d="m338.89,23.16h-.01l-.72.39-.11-.43.91-.48h.48v4.15h-.54v-3.63Z"/>
            <path class="cls-9" d="m343.71,24.67c0,1.41-.53,2.19-1.44,2.19-.81,0-1.36-.76-1.37-2.13,0-1.39.6-2.16,1.44-2.16s1.37.78,1.37,2.1Zm-2.25.06c0,1.08.33,1.69.84,1.69.57,0,.85-.67.85-1.73s-.26-1.69-.84-1.69c-.49,0-.85.6-.85,1.72Z"/>
          </g>
          <g>
            <rect class="cls-9" x="118.54" y="15.34" width=".76" height="3.52"/>
            <rect class="cls-9" x="228.66" y="15.34" width=".76" height="3.52"/>
            <rect class="cls-9" x="338.77" y="15.34" width=".76" height="3.52"/>
          </g>
        </g>
        <g class="hud-meter">
            <path class="cls-8" d="m335.48,248.71c-4.9,0-8.88-3.98-8.88-8.88s3.98-8.88,8.88-8.88,8.88,3.98,8.88,8.88-3.98,8.88-8.88,8.88Zm0-17.5c-4.76,0-8.63,3.87-8.63,8.63s3.87,8.63,8.63,8.63,8.63-3.87,8.63-8.63-3.87-8.63-8.63-8.63Z"/>
            <path class="cls-8" d="m335.48,250.69c-2.88,0-5.6-1.13-7.66-3.19-2.06-2.06-3.19-4.78-3.19-7.66,0-2.36.79-4.7,2.22-6.58l.1.08c-1.41,1.86-2.19,4.16-2.19,6.5,0,5.91,4.81,10.73,10.73,10.73,5.48,0,10.17-4.27,10.68-9.73h.12c-.52,5.53-5.26,9.85-10.81,9.85Z"/>
            <path class="cls-8" d="m335.48,250.69c-2.88,0-5.6-1.13-7.66-3.19-2.06-2.06-3.19-4.78-3.19-7.66,0-2.36.79-4.7,2.22-6.58l.1.08c-1.41,1.86-2.19,4.16-2.19,6.5,0,5.91,4.81,10.73,10.73,10.73,5.48,0,10.17-4.27,10.68-9.73h.12c-.52,5.53-5.26,9.85-10.81,9.85Z"/>
            <path class="cls-8" d="m368.33,250.69c-5.82,0-10.69-4.73-10.85-10.55h.13c.16,5.75,4.97,10.42,10.72,10.42,3.86,0,7.44-2.09,9.34-5.45l.11.06c-1.92,3.4-5.54,5.51-9.45,5.51Z"/>
            <path class="cls-8" d="m400.27,250.69c-2.88,0-5.6-1.13-7.66-3.19-2.06-2.06-3.19-4.78-3.19-7.66s1.13-5.6,3.19-7.66c2.06-2.06,4.78-3.19,7.66-3.19,2.44,0,4.84.84,6.75,2.35l-.08.1c-1.89-1.5-4.26-2.33-6.67-2.33-5.91,0-10.73,4.81-10.73,10.73s4.81,10.73,10.73,10.73c3.08,0,6.01-1.32,8.04-3.63l.09.08c-2.06,2.33-5.03,3.67-8.14,3.67Z"/>
            <path class="cls-8" d="m389.3,241.08c-.05-.41-.07-.83-.07-1.24,0-2.79,1.06-5.46,2.98-7.52l.37.34c-1.84,1.97-2.85,4.51-2.85,7.18,0,.39.02.79.07,1.18l-.5.06Z"/>
            <path class="cls-8 meter1" d="m335.48,248.47c-4.76,0-8.63-3.87-8.63-8.63,0-2.59,1.15-5.03,3.16-6.67l.96,1.17c-1.65,1.36-2.6,3.36-2.6,5.5,0,3.92,3.19,7.12,7.12,7.12,3,0,5.7-1.9,6.7-4.73l1.42.51c-1.22,3.43-4.49,5.73-8.13,5.73Z"/>
            <path class="cls-8" d="m335.48,248.47c-4.76,0-8.63-3.87-8.63-8.63,0-2.59,1.15-5.03,3.16-6.67l.96,1.17c-1.65,1.36-2.6,3.36-2.6,5.5,0,3.92,3.19,7.12,7.12,7.12,3,0,5.7-1.9,6.7-4.73l1.42.51c-1.22,3.43-4.49,5.73-8.13,5.73Z"/>
            <path class="cls-8" d="m368.33,248.71c-4.9,0-8.88-3.98-8.88-8.88s3.98-8.88,8.88-8.88,8.88,3.98,8.88,8.88-3.98,8.88-8.88,8.88Zm0-17.5c-4.76,0-8.63,3.87-8.63,8.63s3.87,8.63,8.63,8.63,8.63-3.87,8.63-8.63-3.87-8.63-8.63-8.63Z"/>
            <path class="cls-8 meter2" d="m368.33,248.47c-4.02,0-7.56-2.85-8.43-6.77l1.48-.33c.71,3.23,3.64,5.58,6.95,5.58,1.69,0,3.33-.6,4.62-1.7l.98,1.15c-1.56,1.33-3.55,2.06-5.6,2.06Z"/>
            <path class="cls-8" d="m368.33,248.71c-4.9,0-8.88-3.98-8.88-8.88s3.98-8.88,8.88-8.88,8.88,3.98,8.88,8.88-3.98,8.88-8.88,8.88Zm0-17.5c-4.76,0-8.63,3.87-8.63,8.63s3.87,8.63,8.63,8.63,8.63-3.87,8.63-8.63-3.87-8.63-8.63-8.63Z"/>
            <path class="cls-8" d="m368.33,248.47c-4.02,0-7.56-2.85-8.43-6.77l1.48-.33c.71,3.23,3.64,5.58,6.95,5.58,1.69,0,3.33-.6,4.62-1.7l.98,1.15c-1.56,1.33-3.55,2.06-5.6,2.06Z"/>
            <path class="cls-8" d="m400.27,248.71c-4.9,0-8.88-3.98-8.88-8.88s3.98-8.88,8.88-8.88,8.88,3.98,8.88,8.88-3.98,8.88-8.88,8.88Zm0-17.5c-4.76,0-8.63,3.87-8.63,8.63s3.87,8.63,8.63,8.63,8.63-3.87,8.63-8.63-3.87-8.63-8.63-8.63Z"/>
            <path class="cls-8 meter3" d="m400.27,248.47c-4.76,0-8.63-3.87-8.63-8.63s3.87-8.63,8.63-8.63v1.51c-3.92,0-7.12,3.19-7.12,7.12s3.19,7.12,7.12,7.12,7.12-3.19,7.12-7.12h1.51c0,4.76-3.87,8.63-8.63,8.63Z"/>
            <path class="cls-8" d="m400.27,248.47c-4.76,0-8.63-3.87-8.63-8.63s3.87-8.63,8.63-8.63v1.51c-3.92,0-7.12,3.19-7.12,7.12s3.19,7.12,7.12,7.12,7.12-3.19,7.12-7.12h1.51c0,4.76-3.87,8.63-8.63,8.63Z"/>
        </g>
        <g class="cls-18">
          <path class="cls-12" d="m333.58,240.6c.05,0,.12,0,.2,0,.15-.02.29-.08.39-.18.12-.11.21-.28.25-.5h0c-.11.13-.25.2-.44.2-.34,0-.55-.25-.55-.58,0-.35.26-.67.64-.67s.62.31.62.79c0,.41-.14.7-.32.88-.14.14-.34.23-.55.25-.09.01-.17.02-.23.02v-.21Zm.09-1.08c0,.23.14.4.36.4.17,0,.3-.08.37-.2.01-.02.02-.05.02-.09,0-.32-.12-.57-.38-.57-.22,0-.37.19-.37.46Z"/>
          <path class="cls-12" d="m335.46,239.13h0l-.33.18-.05-.19.41-.22h.21v1.88h-.24v-1.64Z"/>
          <path class="cls-12" d="m336.45,240.49c.07.04.24.12.42.12.32,0,.43-.21.43-.36,0-.26-.24-.38-.49-.38h-.14v-.19h.14c.18,0,.42-.09.42-.32,0-.15-.1-.28-.33-.28-.15,0-.29.07-.37.12l-.07-.18c.1-.07.29-.15.49-.15.37,0,.54.22.54.45,0,.19-.12.36-.35.44h0c.23.05.42.22.42.49,0,.3-.24.56-.69.56-.21,0-.4-.07-.49-.13l.07-.19Z"/>
        </g>
        <g class="cls-18">
          <path class="cls-12" d="m367.37,239.07c-.05,0-.12,0-.19.01-.4.06-.61.36-.65.67h0c.09-.12.25-.22.45-.22.33,0,.57.24.57.61,0,.34-.23.66-.63.66s-.66-.31-.66-.8c0-.37.13-.66.32-.85.15-.15.36-.25.6-.28.07-.01.14-.01.18-.01v.21Zm-.07,1.09c0-.27-.15-.43-.39-.43-.15,0-.3.09-.37.23-.01.03-.03.07-.03.11,0,.31.15.54.41.54.22,0,.37-.18.37-.45Z"/>
          <path class="cls-12" d="m368.57,240.77v-.51h-.87v-.17l.84-1.2h.28v1.17h.26v.2h-.26v.51h-.24Zm0-.71v-.63c0-.1,0-.2.01-.29h-.01c-.06.11-.1.19-.16.28l-.46.64h0s.61,0,.61,0Z"/>
          <path class="cls-12" d="m370.38,239.11h-.72l-.07.48s.08-.01.15-.01c.15,0,.29.03.41.1.15.08.27.25.27.48,0,.37-.29.64-.7.64-.21,0-.38-.06-.47-.12l.06-.19c.08.05.23.11.4.11.24,0,.44-.16.44-.41,0-.24-.16-.41-.54-.41-.11,0-.19,0-.26.02l.12-.9h.9v.21Z"/>
        </g>
        <g class="cls-18">
          <path class="cls-12" d="m398.34,240.6c.05,0,.12,0,.2,0,.15-.02.29-.08.39-.18.12-.11.21-.28.25-.5h0c-.11.13-.25.2-.44.2-.34,0-.55-.25-.55-.58,0-.35.26-.67.64-.67s.62.31.62.79c0,.41-.14.7-.32.88-.14.14-.34.23-.55.25-.09.01-.17.02-.23.02v-.21Zm.09-1.08c0,.23.14.4.36.4.17,0,.3-.08.37-.2.01-.02.02-.05.02-.09,0-.32-.12-.57-.38-.57-.22,0-.37.19-.37.46Z"/>
          <path class="cls-12" d="m399.65,240.3c0-.24.14-.4.37-.51h0c-.21-.11-.3-.27-.3-.43,0-.3.25-.5.58-.5.36,0,.55.23.55.46,0,.16-.08.33-.31.44h0c.23.1.38.27.38.49,0,.33-.28.55-.64.55-.39,0-.63-.23-.63-.51Zm1.01-.01c0-.23-.16-.34-.41-.41-.22.06-.34.21-.34.39,0,.19.14.36.38.36s.38-.14.38-.34Zm-.7-.94c0,.19.14.29.36.35.16-.05.29-.17.29-.34,0-.15-.09-.3-.32-.3-.21,0-.32.14-.32.3Z"/>
          <path class="cls-12" d="m402.37,238.9v.17l-.82,1.71h-.26l.81-1.66h0s-.92,0-.92,0v-.21h1.18Z"/>
        </g>
        <g class="cls-19">
          <g>
            <path class="cls-12" d="m48.04,239.97v1.66h-.42v-1.54c.14-.01.28-.06.42-.12Zm-1.91-1.03s-.1,0-.14.02v2.67h.42v-2.57c-.08-.07-.17-.12-.28-.13Zm.88.94c-.07-.07-.14-.16-.2-.25v2.01h.42v-1.61c-.08-.04-.15-.08-.22-.15Zm2.25-1.54v3.29h.42v-4.03c-.14.24-.28.49-.42.74Zm1.22-2.08c-.14.22-.27.44-.41.66v4.71h.42v-5.38s0,0,0,.01Zm2.33-.61c-.09-.11-.19-.21-.29-.3v6.28h.42v-5.83s-.08-.1-.12-.14Zm-7.64,4.42v1.55h.42v-2.25c-.13.23-.25.51-.42.7Zm6.53-4.98v6.53h.42v-6.52c-.14-.04-.28-.04-.42,0Zm-.82.6v5.93h.42v-6.33c-.15.11-.29.25-.42.4Zm-2.45,3.95v1.99h.42v-2.57c-.12.21-.26.41-.42.58Zm-4.08.49v1.49h.42v-1.33c-.15.01-.29-.05-.42-.16Zm-5.65-.28s-.04.07-.06.11v1.66h.42v-2.72c-.09.33-.2.66-.35.95Zm-.88.78v.99h.42v-1.2c-.13.1-.27.18-.42.21Zm-.82-.24v1.22h.42v-1c-.14-.04-.28-.12-.42-.22Zm3.26-4.62v5.85h.42v-6.36c-.16.13-.3.32-.42.51Zm-.82,1.76v4.08h.42v-5.09c-.15.32-.29.66-.42,1.01Zm4.22,1.48c-.05-.12-.09-.25-.14-.37v2.97h.42v-2.01c-.11-.19-.2-.4-.27-.59Zm-2.59-3.92v6.52h.42v-6.41c-.13-.08-.27-.12-.42-.11Zm1.63,1.77v4.75h.42v-3.9c-.13-.29-.27-.57-.42-.85Zm-.82-1.32v6.07h.42v-5.48c-.12-.21-.26-.41-.42-.59Zm11.42.73v5.34h.42v-4.79c-.14-.19-.27-.37-.42-.56Zm.82,1.14v4.2h.42v-3.53c-.13-.23-.27-.45-.42-.67Zm11.42,1.89v2.32h.42v-1.96c-.15-.09-.29-.22-.42-.36Zm-.43-.63c-.15-.29-.27-.59-.39-.9v3.84h.42v-2.89s-.02-.03-.03-.05Zm-2.84-2.49v5.43h.42v-5.7c-.14.07-.28.16-.42.27Zm1.93.43c-.09-.15-.19-.3-.3-.43v5.43h.42v-4.79c-.04-.07-.07-.15-.12-.22Zm-1.12-.8v5.81h.42v-5.73c-.14-.06-.28-.08-.42-.07Zm5.71,1.53v4.28h.42v-4.78c-.14.16-.28.33-.42.5Zm.82-.91v5.19h.42v-5.55c-.14.11-.28.23-.42.36Zm-1.25,1.56c-.12.21-.25.43-.38.64v2.98h.42v-3.69s-.03.04-.04.06Zm-1.19,1.64v1.99h.42v-2.39c-.13.16-.27.3-.42.41Zm-.52.21c-.1.01-.2,0-.3-.01v1.79h.42v-1.8s-.08.02-.12.02Zm-10.9-.55v2.32h.42v-2.42c-.13.08-.27.11-.42.09Zm.82-.64v2.97h.42v-3.59c-.19.13-.3.38-.42.63Zm5.14-1.78c-.09.15-.17.31-.25.48v4.27h.42v-5c-.06.08-.12.17-.17.26Zm-6.47,2.19c-.12-.1-.22-.21-.31-.34v2.89h.42v-2.47s-.07-.05-.11-.08Zm2.14-1.11v3.66h.42v-3.35c-.12-.15-.26-.27-.42-.31Zm3.26,1.12v2.54h.42v-3.35c-.12.28-.26.56-.42.81Zm-2.05.65c-.17-.18-.29-.43-.39-.68v2.57h.42v-1.87s-.02-.01-.02-.02Zm1.24.13v1.76h.42v-2.05c-.13.12-.27.22-.42.29Zm-.82.12v1.64h.42v-1.62c-.14.02-.28.02-.42-.01Z"/>
            <path class="cls-3" d="m59.47,240.09v1.54h-.42v-1.66c.13.07.27.11.42.12Zm1.22-1.03v2.57h.42v-2.67s-.09-.02-.14-.02c-.11,0-.2.05-.28.13Zm-.82.96v1.61h.42v-2.01c-.06.09-.13.18-.2.25-.07.06-.14.11-.22.15Zm-2.45-2.43v4.03h.42v-3.29c-.14-.25-.27-.5-.42-.74Zm-.82-1.35v5.38h.42v-4.71c-.13-.22-.27-.44-.41-.66,0,0,0,0,0-.01Zm-2.45-.45v5.83h.42v-6.28c-.1.09-.2.2-.29.3-.04.05-.08.1-.12.14Zm7.34,3.58v2.25h.42v-1.55c-.16-.19-.28-.46-.42-.7Zm-6.53-4.27v6.52h.42v-6.53c-.14-.03-.27-.04-.42,0Zm.82.19v6.33h.42v-5.93c-.13-.15-.27-.29-.42-.4Zm2.45,3.76v2.57h.42v-1.99c-.16-.17-.29-.37-.42-.58Zm4.08,1.24v1.33h.42v-1.49c-.13.11-.27.17-.42.16Zm5.71-1.39v2.72h.42v-1.66s-.04-.07-.06-.11c-.16-.29-.26-.62-.35-.95Zm.82,1.52v1.2h.42v-.99c-.15-.03-.29-.11-.42-.21Zm.82.2v1h.42v-1.22c-.13.1-.27.18-.42.22Zm-3.26-5.36v6.36h.42v-5.85c-.12-.2-.25-.39-.42-.51Zm.82,1.27v5.09h.42v-4.08c-.12-.35-.26-.68-.42-1.01Zm-4.08,3.08v2.01h.42v-2.97c-.05.12-.1.24-.14.37-.07.19-.17.4-.27.59Zm2.45-4.4v6.41h.42v-6.52c-.14,0-.28.03-.42.11Zm-1.63,2.51v3.9h.42v-4.75c-.15.28-.28.57-.42.85Zm.82-1.59v5.48h.42v-6.07c-.16.18-.3.38-.42.59Zm-11.42.69v4.79h.42v-5.34c-.14.18-.28.37-.42.56Zm-.82,1.26v3.53h.42v-4.2c-.14.22-.28.44-.42.67Zm-11.42,1.58v1.96h.42v-2.32c-.13.14-.27.27-.42.36Zm.82-.94v2.89h.42v-3.84c-.12.31-.24.61-.39.9,0,.02-.02.03-.03.05Zm2.45-2.81v5.7h.42v-5.43c-.13-.11-.27-.2-.42-.27Zm-1.63.91v4.79h.42v-5.43c-.11.13-.21.27-.3.43-.04.07-.08.14-.12.22Zm.82-.95v5.73h.42v-5.81c-.14,0-.28.01-.42.07Zm-5.71.95v4.78h.42v-4.28c-.13-.18-.27-.34-.42-.5Zm-.82-.76v5.55h.42v-5.19c-.13-.13-.27-.24-.42-.36Zm1.63,1.86v3.69h.42v-2.98c-.13-.21-.25-.44-.38-.64-.01-.02-.03-.04-.04-.06Zm.82,1.29v2.39h.42v-1.99c-.15-.11-.29-.25-.42-.41Zm.82.6v1.8h.42v-1.79c-.1.02-.2.03-.3.01-.04,0-.08-.01-.12-.02Zm10.61-.62v2.42h.42v-2.32c-.15.02-.29-.01-.42-.09Zm-.82-1.18v3.59h.42v-2.97c-.12-.25-.23-.5-.42-.63Zm-4.9-1.41v5h.42v-4.27c-.08-.16-.16-.32-.25-.48-.05-.09-.11-.17-.17-.26Zm6.53,2.53v2.47h.42v-2.89c-.09.13-.19.24-.31.34-.03.03-.07.05-.11.08Zm-2.45-.87v3.35h.42v-3.66c-.15.05-.3.16-.42.31Zm-3.26,0v3.35h.42v-2.54c-.16-.25-.29-.53-.42-.81Zm2.45,1.48v1.87h.42v-2.57c-.11.25-.22.5-.39.68,0,0-.02.01-.02.02Zm-1.63-.18v2.05h.42v-1.76c-.15-.07-.29-.17-.42-.29Zm.82.43v1.62h.42v-1.64c-.13.04-.27.04-.42.01Z"/>
            <g class="cls-16">
              <path class="cls-7" d="m47.63,243.28v-1.54h.42v1.66c-.13-.07-.27-.11-.42-.12Zm-1.22,1.03v-2.57h-.42v2.67s.09.02.14.02c.11,0,.2-.05.28-.13Zm.82-.96v-1.61h-.42v2.01c.06-.09.13-.18.2-.25.07-.06.14-.11.22-.15Zm2.45,2.43v-4.03h-.42v3.29c.14.25.27.5.42.74Zm.82,1.35v-5.38h-.42v4.71c.13.22.27.44.41.66,0,0,0,0,0,.01Zm2.45.45v-5.83h-.42v6.28c.1-.09.2-.2.29-.3.04-.05.08-.1.12-.14Zm-7.34-3.58v-2.25h-.42v1.55c.16.19.28.46.42.7Zm6.53,4.27v-6.52h-.42v6.53c.14.03.27.04.42,0Zm-.82-.19v-6.33h-.42v5.93c.13.15.27.29.42.4Zm-2.45-3.76v-2.57h-.42v1.99c.16.17.29.37.42.58Zm-4.08-1.24v-1.33h-.42v1.49c.13-.11.27-.17.42-.16Zm-5.71,1.39v-2.72h-.42v1.66s.04.07.06.11c.16.29.26.62.35.95Zm-.82-1.52v-1.2h-.42v.99c.15.03.29.11.42.21Zm-.82-.2v-1h-.42v1.22c.13-.1.27-.18.42-.22Zm3.26,5.36v-6.36h-.42v5.85c.12.2.25.39.42.51Zm-.82-1.27v-5.09h-.42v4.08c.12.35.26.68.42,1.01Zm4.08-3.08v-2.01h-.42v2.97c.05-.12.1-.24.14-.37.07-.19.17-.4.27-.59Zm-2.45,4.4v-6.41h-.42v6.52c.14,0,.28-.03.42-.11Zm1.63-2.51v-3.9h-.42v4.75c.15-.28.28-.57.42-.85Zm-.82,1.59v-5.48h-.42v6.07c.16-.17.3-.38.42-.59Zm11.42-.69v-4.79h-.42v5.34c.14-.18.28-.37.42-.56Zm.82-1.26v-3.53h-.42v4.2c.14-.22.28-.44.42-.67Zm11.42-1.58v-1.96h-.42v2.32c.13-.14.27-.27.42-.36Zm-.82.94v-2.89h-.42v3.84c.12-.31.24-.61.39-.9,0-.02.02-.03.03-.05Zm-2.45,2.81v-5.7h-.42v5.43c.13.11.27.2.42.27Zm1.63-.91v-4.79h-.42v5.43c.11-.13.21-.27.3-.43.04-.07.08-.14.12-.22Zm-.82.95v-5.73h-.42v5.81c.14,0,.28-.01.42-.07Zm5.71-.95v-4.78h-.42v4.28c.13.18.27.34.42.5Zm.82.76v-5.55h-.42v5.19c.13.13.27.24.42.36Zm-1.63-1.86v-3.69h-.42v2.98c.13.21.25.44.38.64.01.02.03.04.04.06Zm-.82-1.29v-2.39h-.42v1.99c.15.11.29.25.42.41Zm-.82-.6v-1.8h-.42v1.79c.1-.02.2-.03.3-.01.04,0,.08.01.12.02Zm-10.61.62v-2.42h-.42v2.32c.15-.02.29.01.42.09Zm.82,1.18v-3.59h-.42v2.97c.12.25.23.5.42.63Zm4.9,1.41v-5h-.42v4.27c.08.16.16.32.25.48.05.09.11.17.17.26Zm-6.53-2.53v-2.47h-.42v2.89c.09-.13.19-.24.31-.34.03-.03.07-.05.11-.08Zm2.45.87v-3.35h-.42v3.66c.15-.05.3-.16.42-.31Zm3.26,0v-3.35h-.42v2.54c.16.25.29.53.42.81Zm-2.45-1.48v-1.87h-.42v2.57c.11-.25.22-.5.39-.68,0,0,.02-.01.02-.02Zm1.63.18v-2.05h-.42v1.76c.15.07.29.17.42.29Zm-.82-.43v-1.62h-.42v1.64c.13-.04.27-.04.42-.01Z"/>
            </g>
          </g>
          <g>
            <path class="cls-12" d="m114.99,239.97v1.66h-.42v-1.54c.14-.01.28-.06.42-.12Zm-1.91-1.03s-.1,0-.14.02v2.67h.42v-2.57c-.08-.07-.17-.12-.28-.13Zm.88.94c-.07-.07-.14-.16-.2-.25v2.01h.42v-1.61c-.08-.04-.15-.08-.22-.15Zm2.25-1.54v3.29h.42v-4.03c-.14.24-.28.49-.42.74Zm1.22-2.08c-.14.22-.27.44-.41.66v4.71h.42v-5.38s0,0,0,.01Zm2.33-.61c-.09-.11-.19-.21-.29-.3v6.28h.42v-5.83s-.08-.1-.12-.14Zm-7.64,4.42v1.55h.42v-2.25c-.13.23-.25.51-.42.7Zm6.53-4.98v6.53h.42v-6.52c-.14-.04-.28-.04-.42,0Zm-.82.6v5.93h.42v-6.33c-.15.11-.29.25-.42.4Zm-2.45,3.95v1.99h.42v-2.57c-.12.21-.26.41-.42.58Zm-4.08.49v1.49h.42v-1.33c-.15.01-.29-.05-.42-.16Zm-5.65-.28s-.04.07-.06.11v1.66h.42v-2.72c-.09.33-.2.66-.35.95Zm-.88.78v.99h.42v-1.2c-.13.1-.27.18-.42.21Zm-.82-.24v1.22h.42v-1c-.14-.04-.28-.12-.42-.22Zm3.26-4.62v5.85h.42v-6.36c-.16.13-.3.32-.42.51Zm-.82,1.76v4.08h.42v-5.09c-.15.32-.29.66-.42,1.01Zm4.22,1.48c-.05-.12-.09-.25-.14-.37v2.97h.42v-2.01c-.11-.19-.2-.4-.27-.59Zm-2.59-3.92v6.52h.42v-6.41c-.13-.08-.27-.12-.42-.11Zm1.63,1.77v4.75h.42v-3.9c-.13-.29-.27-.57-.42-.85Zm-.82-1.32v6.07h.42v-5.48c-.12-.21-.26-.41-.42-.59Zm11.42.73v5.34h.42v-4.79c-.14-.19-.27-.37-.42-.56Zm.82,1.14v4.2h.42v-3.53c-.13-.23-.27-.45-.42-.67Zm11.42,1.89v2.32h.42v-1.96c-.15-.09-.29-.22-.42-.36Zm-.43-.63c-.15-.29-.27-.59-.39-.9v3.84h.42v-2.89s-.02-.03-.03-.05Zm-2.84-2.49v5.43h.42v-5.7c-.14.07-.28.16-.42.27Zm1.93.43c-.09-.15-.19-.3-.3-.43v5.43h.42v-4.79c-.04-.07-.07-.15-.12-.22Zm-1.12-.8v5.81h.42v-5.73c-.14-.06-.28-.08-.42-.07Zm5.71,1.53v4.28h.42v-4.78c-.14.16-.28.33-.42.5Zm.82-.91v5.19h.42v-5.55c-.14.11-.28.23-.42.36Zm-1.25,1.56c-.12.21-.25.43-.38.64v2.98h.42v-3.69s-.03.04-.04.06Zm-1.19,1.64v1.99h.42v-2.39c-.13.16-.27.3-.42.41Zm-.52.21c-.1.01-.2,0-.3-.01v1.79h.42v-1.8s-.08.02-.12.02Zm-10.9-.55v2.32h.42v-2.42c-.13.08-.27.11-.42.09Zm.82-.64v2.97h.42v-3.59c-.19.13-.3.38-.42.63Zm5.14-1.78c-.09.15-.17.31-.25.48v4.27h.42v-5c-.06.08-.12.17-.17.26Zm-6.47,2.19c-.12-.1-.22-.21-.31-.34v2.89h.42v-2.47s-.07-.05-.11-.08Zm2.14-1.11v3.66h.42v-3.35c-.12-.15-.26-.27-.42-.31Zm3.26,1.12v2.54h.42v-3.35c-.12.28-.26.56-.42.81Zm-2.05.65c-.17-.18-.29-.43-.39-.68v2.57h.42v-1.87s-.02-.01-.02-.02Zm1.24.13v1.76h.42v-2.05c-.13.12-.27.22-.42.29Zm-.82.12v1.64h.42v-1.62c-.14.02-.28.02-.42-.01Z"/>
            <path class="cls-3" d="m126.41,240.09v1.54h-.42v-1.66c.13.07.27.11.42.12Zm1.22-1.03v2.57h.42v-2.67s-.09-.02-.14-.02c-.11,0-.2.05-.28.13Zm-.82.96v1.61h.42v-2.01c-.06.09-.13.18-.2.25-.07.06-.14.11-.22.15Zm-2.45-2.43v4.03h.42v-3.29c-.14-.25-.27-.5-.42-.74Zm-.82-1.35v5.38h.42v-4.71c-.13-.22-.27-.44-.41-.66,0,0,0,0,0-.01Zm-2.45-.45v5.83h.42v-6.28c-.1.09-.2.2-.29.3-.04.05-.08.1-.12.14Zm7.34,3.58v2.25h.42v-1.55c-.16-.19-.28-.46-.42-.7Zm-6.53-4.27v6.52h.42v-6.53c-.14-.03-.27-.04-.42,0Zm.82.19v6.33h.42v-5.93c-.13-.15-.27-.29-.42-.4Zm2.45,3.76v2.57h.42v-1.99c-.16-.17-.29-.37-.42-.58Zm4.08,1.24v1.33h.42v-1.49c-.13.11-.27.17-.42.16Zm5.71-1.39v2.72h.42v-1.66s-.04-.07-.06-.11c-.16-.29-.26-.62-.35-.95Zm.82,1.52v1.2h.42v-.99c-.15-.03-.29-.11-.42-.21Zm.82.2v1h.42v-1.22c-.13.1-.27.18-.42.22Zm-3.26-5.36v6.36h.42v-5.85c-.12-.2-.25-.39-.42-.51Zm.82,1.27v5.09h.42v-4.08c-.12-.35-.26-.68-.42-1.01Zm-4.08,3.08v2.01h.42v-2.97c-.05.12-.1.24-.14.37-.07.19-.17.4-.27.59Zm2.45-4.4v6.41h.42v-6.52c-.14,0-.28.03-.42.11Zm-1.63,2.51v3.9h.42v-4.75c-.15.28-.28.57-.42.85Zm.82-1.59v5.48h.42v-6.07c-.16.18-.3.38-.42.59Zm-11.42.69v4.79h.42v-5.34c-.14.18-.28.37-.42.56Zm-.82,1.26v3.53h.42v-4.2c-.14.22-.28.44-.42.67Zm-11.42,1.58v1.96h.42v-2.32c-.13.14-.27.27-.42.36Zm.82-.94v2.89h.42v-3.84c-.12.31-.24.61-.39.9,0,.02-.02.03-.03.05Zm2.45-2.81v5.7h.42v-5.43c-.13-.11-.27-.2-.42-.27Zm-1.63.91v4.79h.42v-5.43c-.11.13-.21.27-.3.43-.04.07-.08.14-.12.22Zm.82-.95v5.73h.42v-5.81c-.14,0-.28.01-.42.07Zm-5.71.95v4.78h.42v-4.28c-.13-.18-.27-.34-.42-.5Zm-.82-.76v5.55h.42v-5.19c-.13-.13-.27-.24-.42-.36Zm1.63,1.86v3.69h.42v-2.98c-.13-.21-.25-.44-.38-.64-.01-.02-.03-.04-.04-.06Zm.82,1.29v2.39h.42v-1.99c-.15-.11-.29-.25-.42-.41Zm.82.6v1.8h.42v-1.79c-.1.02-.2.03-.3.01-.04,0-.08-.01-.12-.02Zm10.61-.62v2.42h.42v-2.32c-.15.02-.29-.01-.42-.09Zm-.82-1.18v3.59h.42v-2.97c-.12-.25-.23-.5-.42-.63Zm-4.9-1.41v5h.42v-4.27c-.08-.16-.16-.32-.25-.48-.05-.09-.11-.17-.17-.26Zm6.53,2.53v2.47h.42v-2.89c-.09.13-.19.24-.31.34-.03.03-.07.05-.11.08Zm-2.45-.87v3.35h.42v-3.66c-.15.05-.3.16-.42.31Zm-3.26,0v3.35h.42v-2.54c-.16-.25-.29-.53-.42-.81Zm2.45,1.48v1.87h.42v-2.57c-.11.25-.22.5-.39.68,0,0-.02.01-.02.02Zm-1.63-.18v2.05h.42v-1.76c-.15-.07-.29-.17-.42-.29Zm.82.43v1.62h.42v-1.64c-.13.04-.27.04-.42.01Z"/>
            <g class="cls-22">
              <path class="cls-6" d="m114.57,243.28v-1.54h.42v1.66c-.13-.07-.27-.11-.42-.12Zm-1.22,1.03v-2.57h-.42v2.67s.09.02.14.02c.11,0,.2-.05.28-.13Zm.82-.96v-1.61h-.42v2.01c.06-.09.13-.18.2-.25.07-.06.14-.11.22-.15Zm2.45,2.43v-4.03h-.42v3.29c.14.25.27.5.42.74Zm.82,1.35v-5.38h-.42v4.71c.13.22.27.44.41.66,0,0,0,0,0,.01Zm2.45.45v-5.83h-.42v6.28c.1-.09.2-.2.29-.3.04-.05.08-.1.12-.14Zm-7.34-3.58v-2.25h-.42v1.55c.16.19.28.46.42.7Zm6.53,4.27v-6.52h-.42v6.53c.14.03.27.04.42,0Zm-.82-.19v-6.33h-.42v5.93c.13.15.27.29.42.4Zm-2.45-3.76v-2.57h-.42v1.99c.16.17.29.37.42.58Zm-4.08-1.24v-1.33h-.42v1.49c.13-.11.27-.17.42-.16Zm-5.71,1.39v-2.72h-.42v1.66s.04.07.06.11c.16.29.26.62.35.95Zm-.82-1.52v-1.2h-.42v.99c.15.03.29.11.42.21Zm-.82-.2v-1h-.42v1.22c.13-.1.27-.18.42-.22Zm3.26,5.36v-6.36h-.42v5.85c.12.2.25.39.42.51Zm-.82-1.27v-5.09h-.42v4.08c.12.35.26.68.42,1.01Zm4.08-3.08v-2.01h-.42v2.97c.05-.12.1-.24.14-.37.07-.19.17-.4.27-.59Zm-2.45,4.4v-6.41h-.42v6.52c.14,0,.28-.03.42-.11Zm1.63-2.51v-3.9h-.42v4.75c.15-.28.28-.57.42-.85Zm-.82,1.59v-5.48h-.42v6.07c.16-.17.3-.38.42-.59Zm11.42-.69v-4.79h-.42v5.34c.14-.18.28-.37.42-.56Zm.82-1.26v-3.53h-.42v4.2c.14-.22.28-.44.42-.67Zm11.42-1.58v-1.96h-.42v2.32c.13-.14.27-.27.42-.36Zm-.82.94v-2.89h-.42v3.84c.12-.31.24-.61.39-.9,0-.02.02-.03.03-.05Zm-2.45,2.81v-5.7h-.42v5.43c.13.11.27.2.42.27Zm1.63-.91v-4.79h-.42v5.43c.11-.13.21-.27.3-.43.04-.07.08-.14.12-.22Zm-.82.95v-5.73h-.42v5.81c.14,0,.28-.01.42-.07Zm5.71-.95v-4.78h-.42v4.28c.13.18.27.34.42.5Zm.82.76v-5.55h-.42v5.19c.13.13.27.24.42.36Zm-1.63-1.86v-3.69h-.42v2.98c.13.21.25.44.38.64.01.02.03.04.04.06Zm-.82-1.29v-2.39h-.42v1.99c.15.11.29.25.42.41Zm-.82-.6v-1.8h-.42v1.79c.1-.02.2-.03.3-.01.04,0,.08.01.12.02Zm-10.61.62v-2.42h-.42v2.32c.15-.02.29.01.42.09Zm.82,1.18v-3.59h-.42v2.97c.12.25.23.5.42.63Zm4.9,1.41v-5h-.42v4.27c.08.16.16.32.25.48.05.09.11.17.17.26Zm-6.53-2.53v-2.47h-.42v2.89c.09-.13.19-.24.31-.34.03-.03.07-.05.11-.08Zm2.45.87v-3.35h-.42v3.66c.15-.05.3-.16.42-.31Zm3.26,0v-3.35h-.42v2.54c.16.25.29.53.42.81Zm-2.45-1.48v-1.87h-.42v2.57c.11-.25.22-.5.39-.68,0,0,.02-.01.02-.02Zm1.63.18v-2.05h-.42v1.76c.15.07.29.17.42.29Zm-.82-.43v-1.62h-.42v1.64c.13-.04.27-.04.42-.01Z"/>
            </g>
          </g>
          <g>
            <path class="cls-12" d="m92.94,240.09v1.54h-.42v-1.66c.13.07.27.11.42.12Zm1.22-1.03v2.57h.42v-2.67s-.09-.02-.14-.02c-.11,0-.2.05-.28.13Zm-.82.96v1.61h.42v-2.01c-.06.09-.13.18-.2.25-.07.06-.14.11-.22.15Zm-2.45-2.43v4.03h.42v-3.29c-.14-.25-.27-.5-.42-.74Zm-.82-1.35v5.38h.42v-4.71c-.13-.22-.27-.44-.41-.66,0,0,0,0,0-.01Zm-2.45-.45v5.83h.42v-6.28c-.1.09-.2.2-.29.3-.04.05-.08.1-.12.14Zm7.34,3.58v2.25h.42v-1.55c-.16-.19-.28-.46-.42-.7Zm-6.53-4.27v6.52h.42v-6.53c-.14-.03-.27-.04-.42,0Zm.82.19v6.33h.42v-5.93c-.13-.15-.27-.29-.42-.4Zm2.45,3.76v2.57h.42v-1.99c-.16-.17-.29-.37-.42-.58Zm4.08,1.24v1.33h.42v-1.49c-.13.11-.27.17-.42.16Zm5.71-1.39v2.72h.42v-1.66s-.04-.07-.06-.11c-.16-.29-.26-.62-.35-.95Zm.82,1.52v1.2h.42v-.99c-.15-.03-.29-.11-.42-.21Zm.82.2v1h.42v-1.22c-.13.1-.27.18-.42.22Zm-3.26-5.36v6.36h.42v-5.85c-.12-.2-.25-.39-.42-.51Zm.82,1.27v5.09h.42v-4.08c-.12-.35-.26-.68-.42-1.01Zm-4.08,3.08v2.01h.42v-2.97c-.05.12-.1.24-.14.37-.07.19-.17.4-.27.59Zm2.45-4.4v6.41h.42v-6.52c-.14,0-.28.03-.42.11Zm-1.63,2.51v3.9h.42v-4.75c-.15.28-.28.57-.42.85Zm.82-1.59v5.48h.42v-6.07c-.16.18-.3.38-.42.59Zm-11.42.69v4.79h.42v-5.34c-.14.18-.28.37-.42.56Zm-.82,1.26v3.53h.42v-4.2c-.14.22-.28.44-.42.67Zm-11.42,1.58v1.96h.42v-2.32c-.13.14-.27.27-.42.36Zm.82-.94v2.89h.42v-3.84c-.12.31-.24.61-.39.9,0,.02-.02.03-.03.05Zm2.45-2.81v5.7h.42v-5.43c-.13-.11-.27-.2-.42-.27Zm-1.63.91v4.79h.42v-5.43c-.11.13-.21.27-.3.43-.04.07-.08.14-.12.22Zm.82-.95v5.73h.42v-5.81c-.14,0-.28.01-.42.07Zm-5.71.95v4.78h.42v-4.28c-.13-.18-.27-.34-.42-.5Zm-.82-.76v5.55h.42v-5.19c-.13-.13-.27-.24-.42-.36Zm1.63,1.86v3.69h.42v-2.98c-.13-.21-.25-.44-.38-.64-.01-.02-.03-.04-.04-.06Zm.82,1.29v2.39h.42v-1.99c-.15-.11-.29-.25-.42-.41Zm.82.6v1.8h.42v-1.79c-.1.02-.2.03-.3.01-.04,0-.08-.01-.12-.02Zm10.61-.62v2.42h.42v-2.32c-.15.02-.29-.01-.42-.09Zm-.82-1.18v3.59h.42v-2.97c-.12-.25-.23-.5-.42-.63Zm-4.9-1.41v5h.42v-4.27c-.08-.16-.16-.32-.25-.48-.05-.09-.11-.17-.17-.26Zm6.53,2.53v2.47h.42v-2.89c-.09.13-.19.24-.31.34-.03.03-.07.05-.11.08Zm-2.45-.87v3.35h.42v-3.66c-.15.05-.3.16-.42.31Zm-3.26,0v3.35h.42v-2.54c-.16-.25-.29-.53-.42-.81Zm2.45,1.48v1.87h.42v-2.57c-.11.25-.22.5-.39.68,0,0-.02.01-.02.02Zm-1.63-.18v2.05h.42v-1.76c-.15-.07-.29-.17-.42-.29Zm.82.43v1.62h.42v-1.64c-.13.04-.27.04-.42.01Z"/>
            <path class="cls-3" d="m81.52,239.97v1.66h-.42v-1.54c.14-.01.28-.06.42-.12Zm-1.91-1.03s-.1,0-.14.02v2.67h.42v-2.57c-.08-.07-.17-.12-.28-.13Zm.88.94c-.07-.07-.14-.16-.2-.25v2.01h.42v-1.61c-.08-.04-.15-.08-.22-.15Zm2.25-1.54v3.29h.42v-4.03c-.14.24-.28.49-.42.74Zm1.22-2.08c-.14.22-.27.44-.41.66v4.71h.42v-5.38s0,0,0,.01Zm2.33-.61c-.09-.11-.19-.21-.29-.3v6.28h.42v-5.83s-.08-.1-.12-.14Zm-7.64,4.42v1.55h.42v-2.25c-.13.23-.25.51-.42.7Zm6.53-4.98v6.53h.42v-6.52c-.14-.04-.28-.04-.42,0Zm-.82.6v5.93h.42v-6.33c-.15.11-.29.25-.42.4Zm-2.45,3.95v1.99h.42v-2.57c-.12.21-.26.41-.42.58Zm-4.08.49v1.49h.42v-1.33c-.15.01-.29-.05-.42-.16Zm-5.65-.28s-.04.07-.06.11v1.66h.42v-2.72c-.09.33-.2.66-.35.95Zm-.88.78v.99h.42v-1.2c-.13.1-.27.18-.42.21Zm-.82-.24v1.22h.42v-1c-.14-.04-.28-.12-.42-.22Zm3.26-4.62v5.85h.42v-6.36c-.16.13-.3.32-.42.51Zm-.82,1.76v4.08h.42v-5.09c-.15.32-.29.66-.42,1.01Zm4.22,1.48c-.05-.12-.09-.25-.14-.37v2.97h.42v-2.01c-.11-.19-.2-.4-.27-.59Zm-2.59-3.92v6.52h.42v-6.41c-.13-.08-.27-.12-.42-.11Zm1.63,1.77v4.75h.42v-3.9c-.13-.29-.27-.57-.42-.85Zm-.82-1.32v6.07h.42v-5.48c-.12-.21-.26-.41-.42-.59Zm11.42.73v5.34h.42v-4.79c-.14-.19-.27-.37-.42-.56Zm.82,1.14v4.2h.42v-3.53c-.13-.23-.27-.45-.42-.67Zm11.42,1.89v2.32h.42v-1.96c-.15-.09-.29-.22-.42-.36Zm-.43-.63c-.15-.29-.27-.59-.39-.9v3.84h.42v-2.89s-.02-.03-.03-.05Zm-2.84-2.49v5.43h.42v-5.7c-.14.07-.28.16-.42.27Zm1.93.43c-.09-.15-.19-.3-.3-.43v5.43h.42v-4.79c-.04-.07-.07-.15-.12-.22Zm-1.12-.8v5.81h.42v-5.73c-.14-.06-.28-.08-.42-.07Zm5.71,1.53v4.28h.42v-4.78c-.14.16-.28.33-.42.5Zm.82-.91v5.19h.42v-5.55c-.14.11-.28.23-.42.36Zm-1.25,1.56c-.12.21-.25.43-.38.64v2.98h.42v-3.69s-.03.04-.04.06Zm-1.19,1.64v1.99h.42v-2.39c-.13.16-.27.3-.42.41Zm-.52.21c-.1.01-.2,0-.3-.01v1.79h.42v-1.8s-.08.02-.12.02Zm-10.9-.55v2.32h.42v-2.42c-.13.08-.27.11-.42.09Zm.82-.64v2.97h.42v-3.59c-.19.13-.3.38-.42.63Zm5.14-1.78c-.09.15-.17.31-.25.48v4.27h.42v-5c-.06.08-.12.17-.17.26Zm-6.47,2.19c-.12-.1-.22-.21-.31-.34v2.89h.42v-2.47s-.07-.05-.11-.08Zm2.14-1.11v3.66h.42v-3.35c-.12-.15-.26-.27-.42-.31Zm3.26,1.12v2.54h.42v-3.35c-.12.28-.26.56-.42.81Zm-2.05.65c-.17-.18-.29-.43-.39-.68v2.57h.42v-1.87s-.02-.01-.02-.02Zm1.24.13v1.76h.42v-2.05c-.13.12-.27.22-.42.29Zm-.82.12v1.64h.42v-1.62c-.14.02-.28.02-.42-.01Z"/>
            <g class="cls-24">
              <path class="cls-5" d="m92.53,243.4v-1.66h.42v1.54c-.14.01-.28.06-.42.12Zm1.91,1.03s.1,0,.14-.02v-2.67h-.42v2.57c.08.07.17.12.28.13Zm-.88-.94c.07.07.14.16.2.25v-2.01h-.42v1.61c.08.04.15.08.22.15Zm-2.25,1.54v-3.29h-.42v4.03c.14-.24.28-.49.42-.74Zm-1.22,2.08c.14-.22.27-.44.41-.66v-4.71h-.42v5.38s0,0,0-.01Zm-2.33.61c.09.11.19.21.29.3v-6.28h-.42v5.83s.08.1.12.14Zm7.64-4.42v-1.55h-.42v2.25c.13-.23.25-.51.42-.7Zm-6.53,4.98v-6.53h-.42v6.52c.14.04.28.04.42,0Zm.82-.6v-5.93h-.42v6.33c.15-.11.29-.25.42-.4Zm2.45-3.95v-1.99h-.42v2.57c.12-.21.26-.41.42-.58Zm4.08-.49v-1.49h-.42v1.33c.15-.01.29.05.42.16Zm5.65.28s.04-.07.06-.11v-1.66h-.42v2.72c.09-.33.2-.66.35-.95Zm.88-.78v-.99h-.42v1.2c.13-.1.27-.18.42-.21Zm.82.24v-1.22h-.42v1c.14.04.28.12.42.22Zm-3.26,4.62v-5.85h-.42v6.36c.16-.13.3-.32.42-.51Zm.82-1.76v-4.08h-.42v5.09c.15-.32.29-.66.42-1.01Zm-4.22-1.48c.05.12.09.25.14.37v-2.97h-.42v2.01c.11.19.2.4.27.59Zm2.59,3.92v-6.52h-.42v6.41c.13.08.27.12.42.11Zm-1.63-1.77v-4.75h-.42v3.9c.13.29.27.57.42.85Zm.82,1.32v-6.07h-.42v5.48c.12.21.26.41.42.59Zm-11.42-.73v-5.34h-.42v4.79c.14.19.27.37.42.56Zm-.82-1.14v-4.2h-.42v3.53c.13.23.27.45.42.67Zm-11.42-1.89v-2.32h-.42v1.96c.15.09.29.22.42.36Zm.43.63c.15.29.27.59.39.9v-3.84h-.42v2.89s.02.03.03.05Zm2.84,2.49v-5.43h-.42v5.7c.14-.07.28-.16.42-.27Zm-1.93-.43c.09.16.19.3.3.43v-5.43h-.42v4.79c.04.07.07.15.12.22Zm1.12.8v-5.81h-.42v5.73c.14.06.28.08.42.07Zm-5.71-1.53v-4.28h-.42v4.78c.14-.16.28-.33.42-.5Zm-.82.91v-5.19h-.42v5.55c.14-.11.28-.23.42-.36Zm1.25-1.56c.12-.21.25-.43.38-.64v-2.98h-.42v3.69s.03-.04.04-.06Zm1.19-1.64v-1.99h-.42v2.39c.13-.16.27-.3.42-.41Zm.52-.21c.1-.01.2,0,.3.01v-1.79h-.42v1.8s.08-.02.12-.02Zm10.9.55v-2.32h-.42v2.42c.13-.08.27-.11.42-.09Zm-.82.64v-2.97h-.42v3.59c.19-.13.3-.38.42-.63Zm-5.14,1.78c.09-.15.17-.31.25-.48v-4.27h-.42v5c.06-.08.12-.17.17-.26Zm6.47-2.19c.12.1.22.21.31.34v-2.89h-.42v2.47s.07.05.11.08Zm-2.14,1.11v-3.66h-.42v3.35c.12.15.26.27.42.31Zm-3.26-1.12v-2.54h-.42v3.35c.12-.28.26-.56.42-.81Zm2.05-.65c.17.18.29.43.39.68v-2.57h-.42v1.87s.02.01.02.02Zm-1.24-.13v-1.76h-.42v2.05c.13-.12.27-.22.42-.29Zm.82-.12v-1.64h-.42v1.62c.14-.02.28-.02.42.01Z"/>
            </g>
          </g>
        </g>
      </g>
    </g>
  </g>
</svg>
