<?xml version="1.0" encoding="UTF-8"?>
<svg xmlns="http://www.w3.org/2000/svg" viewBox="0 0 458.85 280.19">
  <defs>
    <style>
      .cls-1, .cls-2 {
        mix-blend-mode: overlay;
      }

      .cls-2, .cls-3, .cls-4, .cls-5, .cls-6, .cls-7 {
        stroke-width: 0px;
      }

      .cls-2, .cls-6 {
        fill: #fff;
      }

      .cls-8 {
        isolation: isolate;
      }

      .cls-3 {
        fill: #f2f2f2;
      }

      .cls-4 {
        fill: #ccc;
      }

      .cls-5 {
        fill: #b3b3b3;
      }

      .cls-7 {
        fill: #0071bc;
      }
    </style>
  </defs>
  <g class="cls-8">
    <g id="_レイヤー_2" data-name="レイヤー 2">
      <g id="Layer_2" data-name="Layer 2">
        <path class="cls-7" d="m174.42,4.27H11.97c-4.25,0-7.7,3.46-7.7,7.7v80.12h.41v-59.88l3.05-3.05v-15.93c0-3.03,2.48-5.51,5.51-5.51h15.93l3.05-3.05h142.21v-.41Z"/>
        <path class="cls-5" d="m66.4.81v-.81H10.17C4.56,0,0,4.56,0,10.17v58.32h.81V10.17C.81,5.01,5.01.81,10.17.81h56.24Z"/>
        <path class="cls-7" d="m284.24,4.27h162.63c4.25,0,7.7,3.46,7.7,7.7v80.12h-.41v-59.88l-3.05-3.05v-15.93c0-3.03-2.48-5.51-5.51-5.51h-15.93l-3.05-3.05h-142.4v-.41Z"/>
        <path class="cls-5" d="m392.45.81v-.81h56.24c5.61,0,10.17,4.56,10.17,10.17v58.32h-.81V10.17c0-5.16-4.2-9.35-9.35-9.35h-56.24Z"/>
        <path class="cls-7" d="m138.29,263.39l-.41.41H11.97c-4.25,0-7.7-3.45-7.7-7.7v-80.11h.41v59.87l3.04,3.05v15.92c0,3.03,2.48,5.51,5.5,5.51h15.93l3.05,3.04h106.07Z"/>
        <path class="cls-5" d="m66.4,267.26v.81H10.17c-5.61,0-10.17-4.56-10.17-10.17v-58.32h.81v58.32c0,5.16,4.2,9.35,9.35,9.35h56.24Z"/>
        <path class="cls-7" d="m454.58,175.98v80.11c0,4.25-3.45,7.7-7.7,7.7h-125.91l-.41-.41h106.07l3.05-3.04h15.93c3.03,0,5.5-2.48,5.5-5.51v-15.92l3.04-3.05v-59.87h.41Z"/>
        <path class="cls-5" d="m392.45,267.26v.81h56.24c5.61,0,10.17-4.56,10.17-10.17v-58.32h-.81v58.32c0,5.16-4.2,9.35-9.35,9.35h-56.24Z"/>
        <polygon class="cls-4" points="39.57 280.19 54.98 280.19 56.7 278.47 128.19 278.47 129.21 279.5 144.12 279.5 151.49 272.12 169.27 272.12 172.43 268.96 172.43 265.73 189.87 248.29 229.43 248.29 268.98 248.29 286.42 265.73 286.42 268.96 289.58 272.12 307.36 272.12 314.74 279.5 329.64 279.5 330.66 278.47 402.15 278.47 403.87 280.19 419.28 280.19 425.65 273.82 425.65 272.04 418.9 272.04 418.9 273.82 415.13 277.59 340.1 277.59 338.84 276.33 318.77 276.33 308.76 266.32 304.07 266.32 302.49 267.91 289.84 267.91 269.34 247.41 229.43 247.41 189.51 247.41 169.01 267.91 156.36 267.91 154.78 266.32 150.09 266.32 140.08 276.33 120.02 276.33 118.75 277.59 43.72 277.59 39.95 273.82 39.95 272.04 33.2 272.04 33.2 273.82 39.57 280.19"/>
        <g class="cls-1">
          <g>
            <path class="cls-3" d="m116.72,24.86v.41h-1.58v-.41h1.58Z"/>
            <path class="cls-3" d="m118.42,23.16h-.01l-.72.39-.11-.43.91-.48h.48v4.15h-.54v-3.63Z"/>
            <path class="cls-3" d="m123.23,24.67c0,1.41-.53,2.19-1.44,2.19-.81,0-1.36-.76-1.37-2.13,0-1.39.6-2.16,1.44-2.16s1.37.78,1.37,2.1Zm-2.25.06c0,1.08.33,1.69.84,1.69.57,0,.85-.67.85-1.73s-.26-1.69-.84-1.69c-.49,0-.85.6-.85,1.72Z"/>
          </g>
          <path class="cls-3" d="m230.44,24.67c0,1.41-.53,2.19-1.44,2.19-.81,0-1.36-.76-1.37-2.13,0-1.39.6-2.16,1.44-2.16s1.37.78,1.37,2.1Zm-2.25.06c0,1.08.33,1.69.84,1.69.57,0,.85-.67.85-1.73s-.26-1.69-.84-1.69c-.49,0-.85.6-.85,1.72Z"/>
          <g>
            <path class="cls-3" d="m335.69,23.4v1.5h1.44v.38h-1.44v1.51h-.41v-1.51h-1.44v-.38h1.44v-1.5h.41Z"/>
            <path class="cls-3" d="m338.89,23.16h-.01l-.72.39-.11-.43.91-.48h.48v4.15h-.54v-3.63Z"/>
            <path class="cls-3" d="m343.71,24.67c0,1.41-.53,2.19-1.44,2.19-.81,0-1.36-.76-1.37-2.13,0-1.39.6-2.16,1.44-2.16s1.37.78,1.37,2.1Zm-2.25.06c0,1.08.33,1.69.84,1.69.57,0,.85-.67.85-1.73s-.26-1.69-.84-1.69c-.49,0-.85.6-.85,1.72Z"/>
          </g>
          <g>
            <rect class="cls-3" x="120.93" y="15.34" width=".76" height="3.52"/>
            <rect class="cls-3" x="123.33" y="15.34" width=".76" height="3.52"/>
            <rect class="cls-3" x="125.72" y="15.34" width=".76" height="3.52"/>
            <rect class="cls-3" x="128.12" y="15.34" width=".76" height="3.52"/>
            <rect class="cls-3" x="130.51" y="15.34" width=".76" height="3.52"/>
            <rect class="cls-3" x="132.9" y="15.34" width=".76" height="3.52"/>
            <rect class="cls-3" x="135.3" y="15.34" width=".76" height="3.52"/>
            <rect class="cls-3" x="137.69" y="15.34" width=".76" height="3.52"/>
            <rect class="cls-3" x="140.09" y="15.34" width=".76" height="3.52"/>
            <rect class="cls-3" x="142.48" y="15.34" width=".76" height="3.52"/>
            <rect class="cls-3" x="144.87" y="15.34" width=".76" height="3.52"/>
            <rect class="cls-3" x="147.27" y="15.34" width=".76" height="3.52"/>
            <rect class="cls-3" x="149.66" y="15.34" width=".76" height="3.52"/>
            <rect class="cls-3" x="152.05" y="15.34" width=".76" height="3.52"/>
            <rect class="cls-3" x="154.45" y="15.34" width=".76" height="3.52"/>
            <rect class="cls-3" x="156.84" y="15.34" width=".76" height="3.52"/>
            <rect class="cls-3" x="159.24" y="15.34" width=".76" height="3.52"/>
            <rect class="cls-3" x="161.63" y="15.34" width=".76" height="3.52"/>
            <rect class="cls-3" x="164.02" y="15.34" width=".76" height="3.52"/>
            <rect class="cls-3" x="166.42" y="15.34" width=".76" height="3.52"/>
            <rect class="cls-3" x="168.81" y="15.34" width=".76" height="3.52"/>
            <rect class="cls-3" x="171.21" y="15.34" width=".76" height="3.52"/>
            <rect class="cls-3" x="173.6" y="15.34" width=".76" height="3.52"/>
            <rect class="cls-3" x="175.99" y="15.34" width=".76" height="3.52"/>
            <rect class="cls-3" x="178.39" y="15.34" width=".76" height="3.52"/>
            <rect class="cls-3" x="180.78" y="15.34" width=".76" height="3.52"/>
            <rect class="cls-3" x="183.17" y="15.34" width=".76" height="3.52"/>
            <rect class="cls-3" x="185.57" y="15.34" width=".76" height="3.52"/>
            <rect class="cls-3" x="187.96" y="15.34" width=".76" height="3.52"/>
            <rect class="cls-3" x="190.36" y="15.34" width=".76" height="3.52"/>
            <rect class="cls-3" x="192.75" y="15.34" width=".76" height="3.52"/>
            <rect class="cls-3" x="195.14" y="15.34" width=".76" height="3.52"/>
            <rect class="cls-3" x="197.54" y="15.34" width=".76" height="3.52"/>
            <rect class="cls-3" x="199.93" y="15.34" width=".76" height="3.52"/>
            <rect class="cls-3" x="202.32" y="15.34" width=".76" height="3.52"/>
            <rect class="cls-3" x="204.72" y="15.34" width=".76" height="3.52"/>
            <rect class="cls-3" x="207.11" y="15.34" width=".76" height="3.52"/>
            <rect class="cls-3" x="209.51" y="15.34" width=".76" height="3.52"/>
            <rect class="cls-3" x="211.9" y="15.34" width=".76" height="3.52"/>
            <rect class="cls-3" x="214.29" y="15.34" width=".76" height="3.52"/>
            <rect class="cls-3" x="216.69" y="15.34" width=".76" height="3.52"/>
            <rect class="cls-3" x="219.08" y="15.34" width=".76" height="3.52"/>
            <rect class="cls-3" x="221.48" y="15.34" width=".76" height="3.52"/>
            <rect class="cls-3" x="223.87" y="15.34" width=".76" height="3.52"/>
            <rect class="cls-3" x="226.26" y="15.34" width=".76" height="3.52"/>
            <rect class="cls-3" x="231.05" y="15.34" width=".76" height="3.52"/>
            <rect class="cls-3" x="233.44" y="15.34" width=".76" height="3.52"/>
            <rect class="cls-3" x="235.84" y="15.34" width=".76" height="3.52"/>
            <rect class="cls-3" x="238.23" y="15.34" width=".76" height="3.52"/>
            <rect class="cls-3" x="240.63" y="15.34" width=".76" height="3.52"/>
            <rect class="cls-3" x="243.02" y="15.34" width=".76" height="3.52"/>
            <rect class="cls-3" x="245.41" y="15.34" width=".76" height="3.52"/>
            <rect class="cls-3" x="247.81" y="15.34" width=".76" height="3.52"/>
            <rect class="cls-3" x="250.2" y="15.34" width=".76" height="3.52"/>
            <rect class="cls-3" x="252.59" y="15.34" width=".76" height="3.52"/>
            <rect class="cls-3" x="254.99" y="15.34" width=".76" height="3.52"/>
            <rect class="cls-3" x="257.38" y="15.34" width=".76" height="3.52"/>
            <rect class="cls-3" x="259.78" y="15.34" width=".76" height="3.52"/>
            <rect class="cls-3" x="262.17" y="15.34" width=".76" height="3.52"/>
            <rect class="cls-3" x="264.56" y="15.34" width=".76" height="3.52"/>
            <rect class="cls-3" x="266.96" y="15.34" width=".76" height="3.52"/>
            <rect class="cls-3" x="269.35" y="15.34" width=".76" height="3.52"/>
            <rect class="cls-3" x="271.75" y="15.34" width=".76" height="3.52"/>
            <rect class="cls-3" x="274.14" y="15.34" width=".76" height="3.52"/>
            <rect class="cls-3" x="276.53" y="15.34" width=".76" height="3.52"/>
            <rect class="cls-3" x="278.93" y="15.34" width=".76" height="3.52"/>
            <rect class="cls-3" x="281.32" y="15.34" width=".76" height="3.52"/>
            <rect class="cls-3" x="283.71" y="15.34" width=".76" height="3.52"/>
            <rect class="cls-3" x="286.11" y="15.34" width=".76" height="3.52"/>
            <rect class="cls-3" x="288.5" y="15.34" width=".76" height="3.52"/>
            <rect class="cls-3" x="290.9" y="15.34" width=".76" height="3.52"/>
            <rect class="cls-3" x="293.29" y="15.34" width=".76" height="3.52"/>
            <rect class="cls-3" x="295.68" y="15.34" width=".76" height="3.52"/>
            <rect class="cls-3" x="298.08" y="15.34" width=".76" height="3.52"/>
            <rect class="cls-3" x="300.47" y="15.34" width=".76" height="3.52"/>
            <rect class="cls-3" x="302.86" y="15.34" width=".76" height="3.52"/>
            <rect class="cls-3" x="305.26" y="15.34" width=".76" height="3.52"/>
            <rect class="cls-3" x="307.65" y="15.34" width=".76" height="3.52"/>
            <rect class="cls-3" x="310.05" y="15.34" width=".76" height="3.52"/>
            <rect class="cls-3" x="312.44" y="15.34" width=".76" height="3.52"/>
            <rect class="cls-3" x="314.83" y="15.34" width=".76" height="3.52"/>
            <rect class="cls-3" x="317.23" y="15.34" width=".76" height="3.52"/>
            <rect class="cls-3" x="319.62" y="15.34" width=".76" height="3.52"/>
            <rect class="cls-3" x="322.02" y="15.34" width=".76" height="3.52"/>
            <rect class="cls-3" x="324.41" y="15.34" width=".76" height="3.52"/>
            <rect class="cls-3" x="326.8" y="15.34" width=".76" height="3.52"/>
            <rect class="cls-3" x="329.2" y="15.34" width=".76" height="3.52"/>
            <rect class="cls-3" x="331.59" y="15.34" width=".76" height="3.52"/>
            <rect class="cls-3" x="333.98" y="15.34" width=".76" height="3.52"/>
            <rect class="cls-3" x="336.38" y="15.34" width=".76" height="3.52"/>
          </g>
          <g>
            <g>
              <polygon class="cls-3" points="229.04 21.27 229.82 19.92 228.26 19.92 229.04 21.27"/>
              <polygon class="cls-3" points="229.04 12.93 228.26 14.28 229.82 14.28 229.04 12.93"/>
            </g>
            <g>
              <polygon class="cls-3" points="118.92 21.27 119.7 19.92 118.14 19.92 118.92 21.27"/>
              <polygon class="cls-3" points="118.92 12.93 118.14 14.28 119.7 14.28 118.92 12.93"/>
            </g>
            <g>
              <polygon class="cls-3" points="339.15 21.27 339.93 19.92 338.37 19.92 339.15 21.27"/>
              <polygon class="cls-3" points="339.15 12.93 338.37 14.28 339.93 14.28 339.15 12.93"/>
            </g>
          </g>
          <g>
            <g>
              <polygon class="cls-3" points="229.04 21.27 229.82 19.92 228.26 19.92 229.04 21.27"/>
              <polygon class="cls-3" points="229.04 12.93 228.26 14.28 229.82 14.28 229.04 12.93"/>
            </g>
            <g>
              <polygon class="cls-3" points="118.92 21.27 119.7 19.92 118.14 19.92 118.92 21.27"/>
              <polygon class="cls-3" points="118.92 12.93 118.14 14.28 119.7 14.28 118.92 12.93"/>
            </g>
            <g>
              <polygon class="cls-3" points="339.15 21.27 339.93 19.92 338.37 19.92 339.15 21.27"/>
              <polygon class="cls-3" points="339.15 12.93 338.37 14.28 339.93 14.28 339.15 12.93"/>
            </g>
          </g>
          <g>
            <path class="cls-3" d="m116.72,24.86v.41h-1.58v-.41h1.58Z"/>
            <path class="cls-3" d="m118.42,23.16h-.01l-.72.39-.11-.43.91-.48h.48v4.15h-.54v-3.63Z"/>
            <path class="cls-3" d="m123.23,24.67c0,1.41-.53,2.19-1.44,2.19-.81,0-1.36-.76-1.37-2.13,0-1.39.6-2.16,1.44-2.16s1.37.78,1.37,2.1Zm-2.25.06c0,1.08.33,1.69.84,1.69.57,0,.85-.67.85-1.73s-.26-1.69-.84-1.69c-.49,0-.85.6-.85,1.72Z"/>
          </g>
          <path class="cls-3" d="m230.44,24.67c0,1.41-.53,2.19-1.44,2.19-.81,0-1.36-.76-1.37-2.13,0-1.39.6-2.16,1.44-2.16s1.37.78,1.37,2.1Zm-2.25.06c0,1.08.33,1.69.84,1.69.57,0,.85-.67.85-1.73s-.26-1.69-.84-1.69c-.49,0-.85.6-.85,1.72Z"/>
          <g>
            <path class="cls-3" d="m335.69,23.4v1.5h1.44v.38h-1.44v1.51h-.41v-1.51h-1.44v-.38h1.44v-1.5h.41Z"/>
            <path class="cls-3" d="m338.89,23.16h-.01l-.72.39-.11-.43.91-.48h.48v4.15h-.54v-3.63Z"/>
            <path class="cls-3" d="m343.71,24.67c0,1.41-.53,2.19-1.44,2.19-.81,0-1.36-.76-1.37-2.13,0-1.39.6-2.16,1.44-2.16s1.37.78,1.37,2.1Zm-2.25.06c0,1.08.33,1.69.84,1.69.57,0,.85-.67.85-1.73s-.26-1.69-.84-1.69c-.49,0-.85.6-.85,1.72Z"/>
          </g>
          <g>
            <rect class="cls-3" x="118.54" y="15.34" width=".76" height="3.52"/>
            <rect class="cls-3" x="228.66" y="15.34" width=".76" height="3.52"/>
            <rect class="cls-3" x="338.77" y="15.34" width=".76" height="3.52"/>
          </g>
        </g>
        <path class="cls-2" d="m335.48,248.71c-4.9,0-8.88-3.98-8.88-8.88s3.98-8.88,8.88-8.88,8.88,3.98,8.88,8.88-3.98,8.88-8.88,8.88Zm0-17.5c-4.76,0-8.63,3.87-8.63,8.63s3.87,8.63,8.63,8.63,8.63-3.87,8.63-8.63-3.87-8.63-8.63-8.63Z"/>
        <path class="cls-2" d="m335.48,250.69c-2.88,0-5.6-1.13-7.66-3.19-2.06-2.06-3.19-4.78-3.19-7.66,0-2.36.79-4.7,2.22-6.58l.1.08c-1.41,1.86-2.19,4.16-2.19,6.5,0,5.91,4.81,10.73,10.73,10.73,5.48,0,10.17-4.27,10.68-9.73h.12c-.52,5.53-5.26,9.85-10.81,9.85Z"/>
        <path class="cls-2" d="m335.48,250.69c-2.88,0-5.6-1.13-7.66-3.19-2.06-2.06-3.19-4.78-3.19-7.66,0-2.36.79-4.7,2.22-6.58l.1.08c-1.41,1.86-2.19,4.16-2.19,6.5,0,5.91,4.81,10.73,10.73,10.73,5.48,0,10.17-4.27,10.68-9.73h.12c-.52,5.53-5.26,9.85-10.81,9.85Z"/>
        <path class="cls-2" d="m368.33,250.69c-5.82,0-10.69-4.73-10.85-10.55h.13c.16,5.75,4.97,10.42,10.72,10.42,3.86,0,7.44-2.09,9.34-5.45l.11.06c-1.92,3.4-5.54,5.51-9.45,5.51Z"/>
        <path class="cls-2" d="m400.27,250.69c-2.88,0-5.6-1.13-7.66-3.19-2.06-2.06-3.19-4.78-3.19-7.66s1.13-5.6,3.19-7.66c2.06-2.06,4.78-3.19,7.66-3.19,2.44,0,4.84.84,6.75,2.35l-.08.1c-1.89-1.5-4.26-2.33-6.67-2.33-5.91,0-10.73,4.81-10.73,10.73s4.81,10.73,10.73,10.73c3.08,0,6.01-1.32,8.04-3.63l.09.08c-2.06,2.33-5.03,3.67-8.14,3.67Z"/>
        <path class="cls-2" d="m389.3,241.08c-.05-.41-.07-.83-.07-1.24,0-2.79,1.06-5.46,2.98-7.52l.37.34c-1.84,1.97-2.85,4.51-2.85,7.18,0,.39.02.79.07,1.18l-.5.06Z"/>
        <path class="cls-2" d="m335.48,248.47c-4.76,0-8.63-3.87-8.63-8.63,0-2.59,1.15-5.03,3.16-6.67l.96,1.17c-1.65,1.36-2.6,3.36-2.6,5.5,0,3.92,3.19,7.12,7.12,7.12,3,0,5.7-1.9,6.7-4.73l1.42.51c-1.22,3.43-4.49,5.73-8.13,5.73Z"/>
        <path class="cls-2" d="m335.48,248.47c-4.76,0-8.63-3.87-8.63-8.63,0-2.59,1.15-5.03,3.16-6.67l.96,1.17c-1.65,1.36-2.6,3.36-2.6,5.5,0,3.92,3.19,7.12,7.12,7.12,3,0,5.7-1.9,6.7-4.73l1.42.51c-1.22,3.43-4.49,5.73-8.13,5.73Z"/>
        <path class="cls-2" d="m368.33,248.71c-4.9,0-8.88-3.98-8.88-8.88s3.98-8.88,8.88-8.88,8.88,3.98,8.88,8.88-3.98,8.88-8.88,8.88Zm0-17.5c-4.76,0-8.63,3.87-8.63,8.63s3.87,8.63,8.63,8.63,8.63-3.87,8.63-8.63-3.87-8.63-8.63-8.63Z"/>
        <path class="cls-2" d="m368.33,248.47c-4.02,0-7.56-2.85-8.43-6.77l1.48-.33c.71,3.23,3.64,5.58,6.95,5.58,1.69,0,3.33-.6,4.62-1.7l.98,1.15c-1.56,1.33-3.55,2.06-5.6,2.06Z"/>
        <path class="cls-2" d="m368.33,248.71c-4.9,0-8.88-3.98-8.88-8.88s3.98-8.88,8.88-8.88,8.88,3.98,8.88,8.88-3.98,8.88-8.88,8.88Zm0-17.5c-4.76,0-8.63,3.87-8.63,8.63s3.87,8.63,8.63,8.63,8.63-3.87,8.63-8.63-3.87-8.63-8.63-8.63Z"/>
        <path class="cls-2" d="m368.33,248.47c-4.02,0-7.56-2.85-8.43-6.77l1.48-.33c.71,3.23,3.64,5.58,6.95,5.58,1.69,0,3.33-.6,4.62-1.7l.98,1.15c-1.56,1.33-3.55,2.06-5.6,2.06Z"/>
        <path class="cls-2" d="m400.27,248.71c-4.9,0-8.88-3.98-8.88-8.88s3.98-8.88,8.88-8.88,8.88,3.98,8.88,8.88-3.98,8.88-8.88,8.88Zm0-17.5c-4.76,0-8.63,3.87-8.63,8.63s3.87,8.63,8.63,8.63,8.63-3.87,8.63-8.63-3.87-8.63-8.63-8.63Z"/>
        <path class="cls-2" d="m400.27,248.47c-4.76,0-8.63-3.87-8.63-8.63s3.87-8.63,8.63-8.63v1.51c-3.92,0-7.12,3.19-7.12,7.12s3.19,7.12,7.12,7.12,7.12-3.19,7.12-7.12h1.51c0,4.76-3.87,8.63-8.63,8.63Z"/>
        <path class="cls-2" d="m400.27,248.47c-4.76,0-8.63-3.87-8.63-8.63s3.87-8.63,8.63-8.63v1.51c-3.92,0-7.12,3.19-7.12,7.12s3.19,7.12,7.12,7.12,7.12-3.19,7.12-7.12h1.51c0,4.76-3.87,8.63-8.63,8.63Z"/>
        <g class="cls-1">
          <path class="cls-6" d="m333.58,240.6c.05,0,.12,0,.2,0,.15-.02.29-.08.39-.18.12-.11.21-.28.25-.5h0c-.11.13-.25.2-.44.2-.34,0-.55-.25-.55-.58,0-.35.26-.67.64-.67s.62.31.62.79c0,.41-.14.7-.32.88-.14.14-.34.23-.55.25-.09.01-.17.02-.23.02v-.21Zm.09-1.08c0,.23.14.4.36.4.17,0,.3-.08.37-.2.01-.02.02-.05.02-.09,0-.32-.12-.57-.38-.57-.22,0-.37.19-.37.46Z"/>
          <path class="cls-6" d="m335.46,239.13h0l-.33.18-.05-.19.41-.22h.21v1.88h-.24v-1.64Z"/>
          <path class="cls-6" d="m336.45,240.49c.07.04.24.12.42.12.32,0,.43-.21.43-.36,0-.26-.24-.38-.49-.38h-.14v-.19h.14c.18,0,.42-.09.42-.32,0-.15-.1-.28-.33-.28-.15,0-.29.07-.37.12l-.07-.18c.1-.07.29-.15.49-.15.37,0,.54.22.54.45,0,.19-.12.36-.35.44h0c.23.05.42.22.42.49,0,.3-.24.56-.69.56-.21,0-.4-.07-.49-.13l.07-.19Z"/>
        </g>
        <g class="cls-1">
          <path class="cls-6" d="m367.37,239.07c-.05,0-.12,0-.19.01-.4.06-.61.36-.65.67h0c.09-.12.25-.22.45-.22.33,0,.57.24.57.61,0,.34-.23.66-.63.66s-.66-.31-.66-.8c0-.37.13-.66.32-.85.15-.15.36-.25.6-.28.07-.01.14-.01.18-.01v.21Zm-.07,1.09c0-.27-.15-.43-.39-.43-.15,0-.3.09-.37.23-.01.03-.03.07-.03.11,0,.31.15.54.41.54.22,0,.37-.18.37-.45Z"/>
          <path class="cls-6" d="m368.57,240.77v-.51h-.87v-.17l.84-1.2h.28v1.17h.26v.2h-.26v.51h-.24Zm0-.71v-.63c0-.1,0-.2.01-.29h-.01c-.06.11-.1.19-.16.28l-.46.64h0s.61,0,.61,0Z"/>
          <path class="cls-6" d="m370.38,239.11h-.72l-.07.48s.08-.01.15-.01c.15,0,.29.03.41.1.15.08.27.25.27.48,0,.37-.29.64-.7.64-.21,0-.38-.06-.47-.12l.06-.19c.08.05.23.11.4.11.24,0,.44-.16.44-.41,0-.24-.16-.41-.54-.41-.11,0-.19,0-.26.02l.12-.9h.9v.21Z"/>
        </g>
        <g class="cls-1">
          <path class="cls-6" d="m398.34,240.6c.05,0,.12,0,.2,0,.15-.02.29-.08.39-.18.12-.11.21-.28.25-.5h0c-.11.13-.25.2-.44.2-.34,0-.55-.25-.55-.58,0-.35.26-.67.64-.67s.62.31.62.79c0,.41-.14.7-.32.88-.14.14-.34.23-.55.25-.09.01-.17.02-.23.02v-.21Zm.09-1.08c0,.23.14.4.36.4.17,0,.3-.08.37-.2.01-.02.02-.05.02-.09,0-.32-.12-.57-.38-.57-.22,0-.37.19-.37.46Z"/>
          <path class="cls-6" d="m399.65,240.3c0-.24.14-.4.37-.51h0c-.21-.11-.3-.27-.3-.43,0-.3.25-.5.58-.5.36,0,.55.23.55.46,0,.16-.08.33-.31.44h0c.23.1.38.27.38.49,0,.33-.28.55-.64.55-.39,0-.63-.23-.63-.51Zm1.01-.01c0-.23-.16-.34-.41-.41-.22.06-.34.21-.34.39,0,.19.14.36.38.36s.38-.14.38-.34Zm-.7-.94c0,.19.14.29.36.35.16-.05.29-.17.29-.34,0-.15-.09-.3-.32-.3-.21,0-.32.14-.32.3Z"/>
          <path class="cls-6" d="m402.37,238.9v.17l-.82,1.71h-.26l.81-1.66h0s-.92,0-.92,0v-.21h1.18Z"/>
        </g>
      </g>
    </g>
  </g>
</svg>